<svg width="276.075195" height="325.067169" viewBox="0 0 276.075 325.067" fill="none" xmlns="http://www.w3.org/2000/svg" xmlns:xlink="http://www.w3.org/1999/xlink">
	<desc>
			Created with Pixso.
	</desc>
	<defs/>
	<path id="Vector" d="M109.92 306.46C109.92 316.75 101.61 325.06 91.32 325.06C81.03 325.06 72.72 316.72 72.72 306.46C72.72 296.21 81.03 287.86 91.32 287.86C101.61 287.86 109.92 296.17 109.92 306.46Z" fill="#2C3E50" fill-opacity="1.000000" fill-rule="nonzero"/>
	<path id="Vector" d="M101.27 306.46C101.27 311.98 96.81 316.41 91.32 316.41C85.84 316.41 81.37 311.95 81.37 306.46C81.37 300.98 85.84 296.51 91.32 296.51C96.81 296.51 101.27 300.98 101.27 306.46Z" fill="#ECF0F1" fill-opacity="1.000000" fill-rule="nonzero"/>
	<path id="Vector" d="M85.87 272.26L85.87 310.69L95.72 310.69L113.87 272.26L85.87 272.26Z" fill="#95A5A6" fill-opacity="1.000000" fill-rule="nonzero"/>
	<path id="Vector" d="M231.07 306.46C231.07 316.75 222.76 325.06 212.47 325.06C202.18 325.06 193.87 316.72 193.87 306.46C193.87 296.21 202.18 287.86 212.47 287.86C222.76 287.86 231.07 296.17 231.07 306.46Z" fill="#2C3E50" fill-opacity="1.000000" fill-rule="nonzero"/>
	<path id="Vector" d="M222.45 306.46C222.45 311.98 217.99 316.41 212.5 316.41C207.02 316.41 202.55 311.95 202.55 306.46C202.55 300.98 207.02 296.51 212.5 296.51C217.99 296.51 222.45 300.98 222.45 306.46Z" fill="#ECF0F1" fill-opacity="1.000000" fill-rule="nonzero"/>
	<path id="Vector" d="M207.02 272.26L207.02 310.69L216.86 310.69L235.02 272.26L207.02 272.26Z" fill="#95A5A6" fill-opacity="1.000000" fill-rule="nonzero"/>
	<path id="Vector" d="M239.93 277.23L74.46 277.23C68.29 277.23 62.67 274.4 59.02 269.46C55.38 264.52 54.29 258.32 56.06 252.43L73.54 194.58C76.02 186.41 83.42 180.92 91.93 180.92L142.32 180.92C147.7 180.92 152.85 183.2 156.49 187.16C160.14 191.11 161.94 196.46 161.5 201.8L157.72 246.2C157.48 248.82 158.37 251.34 160.14 253.28C161.91 255.22 164.36 256.28 166.99 256.28L193.87 256.28C196.63 256.28 198.84 258.49 198.84 261.25C198.84 264.01 196.63 266.23 193.87 266.23L166.99 266.23C161.6 266.23 156.46 263.94 152.81 259.99C149.17 256.04 147.36 250.69 147.81 245.34L151.59 200.95C151.83 198.33 150.94 195.81 149.17 193.87C147.4 191.92 144.94 190.87 142.32 190.87L91.93 190.87C87.81 190.87 84.24 193.53 83.04 197.48L65.57 255.33C64.71 258.19 65.23 261.19 67 263.57C68.77 265.95 71.49 267.32 74.46 267.32L239.93 267.32C242.69 267.32 244.9 269.53 244.9 272.29C244.9 275.05 242.69 277.26 239.93 277.26L239.93 277.23Z" fill="#BDC3C7" fill-opacity="1.000000" fill-rule="nonzero"/>
	<path id="Vector" d="M235.02 183.51L82.26 183.51C71.26 183.51 61.68 175.71 59.43 164.94L32.79 36.81L267.83 88.43L258.12 163.17C256.62 174.75 246.67 183.48 234.99 183.48L235.02 183.51ZM45.67 49.83L69.18 162.93C70.47 169.1 75.96 173.6 82.26 173.6L235.02 173.6C241.73 173.6 247.42 168.59 248.27 161.94L256.82 96.23L45.67 49.83Z" fill="#BDC3C7" fill-opacity="1.000000" fill-rule="nonzero"/>
	<path id="Vector" d="M105.32 183.51C102.9 183.51 100.79 181.77 100.42 179.32L80.93 54.32C80.52 51.6 82.36 49.08 85.09 48.63C87.78 48.23 90.33 50.06 90.78 52.79L110.26 177.79C110.67 180.51 108.83 183.03 106.11 183.48C105.83 183.51 105.6 183.54 105.32 183.54L105.32 183.51Z" fill="#BDC3C7" fill-opacity="1.000000" fill-rule="nonzero"/>
	<path id="Vector" d="M135.95 183.51C133.36 183.51 131.18 181.5 131.01 178.88L123.18 63.83C123 61.1 125.05 58.72 127.81 58.55C130.5 58.38 132.92 60.42 133.09 63.18L140.92 178.23C141.13 180.95 139.05 183.34 136.29 183.51C136.19 183.51 136.05 183.51 135.95 183.51Z" fill="#BDC3C7" fill-opacity="1.000000" fill-rule="nonzero"/>
	<path id="Vector" d="M167.94 180.17C165.18 180.17 162.97 177.96 162.97 175.2L162.97 71.56C162.97 68.8 165.18 66.59 167.94 66.59C170.7 66.59 172.91 68.8 172.91 71.56L172.91 175.2C172.91 177.96 170.7 180.17 167.94 180.17Z" fill="#BDC3C7" fill-opacity="1.000000" fill-rule="nonzero"/>
	<path id="Vector" d="M200.03 183.51C200.03 183.51 199.86 183.51 199.79 183.51C197.03 183.37 194.92 181.06 195.06 178.33L199.56 81.65C199.69 78.99 201.87 76.91 204.53 76.91C204.6 76.91 204.7 76.91 204.77 76.91C207.53 77.05 209.64 79.36 209.5 82.09L205.01 178.77C204.87 181.43 202.69 183.51 200.03 183.51Z" fill="#BDC3C7" fill-opacity="1.000000" fill-rule="nonzero"/>
	<path id="Vector" d="M228.14 180.17C228.14 180.17 227.8 180.17 227.63 180.17C224.9 179.9 222.89 177.45 223.17 174.72L232.06 86.28C232.33 83.55 234.75 81.58 237.51 81.82C240.23 82.09 242.24 84.51 241.97 87.27L233.08 175.71C232.81 178.26 230.66 180.17 228.14 180.17Z" fill="#BDC3C7" fill-opacity="1.000000" fill-rule="nonzero"/>
	<path id="Vector" d="M259 122.9C258.8 122.9 258.6 122.9 258.36 122.87L48.57 96.19C45.84 95.85 43.93 93.37 44.27 90.64C44.61 87.91 47.13 86.01 49.83 86.35L259.62 113.02C262.34 113.36 264.25 115.85 263.91 118.58C263.6 121.1 261.46 122.94 258.97 122.94L259 122.9Z" fill="#BDC3C7" fill-opacity="1.000000" fill-rule="nonzero"/>
	<path id="Vector" d="M255.5 150.02C255.5 150.02 255.36 150.02 255.29 150.02L58.55 142.05C55.79 141.95 53.68 139.63 53.78 136.87C53.88 134.14 56.23 132.03 58.96 132.1L255.7 140.07C258.43 140.17 260.57 142.49 260.47 145.25C260.37 147.94 258.15 150.02 255.5 150.02Z" fill="#BDC3C7" fill-opacity="1.000000" fill-rule="nonzero"/>
	<path id="Vector" d="M261.59 105.66L222.45 96.02L228.04 73.37L267.18 83.01C273.45 84.54 277.26 90.88 275.73 97.11C274.2 103.38 267.86 107.2 261.63 105.66L261.59 105.66Z" fill="#E74C3C" fill-opacity="1.000000" fill-rule="nonzero"/>
	<path id="Vector" d="M272.29 85.84C269.29 92.55 261.05 95.99 254 94.22C244.76 91.9 235.7 89.31 227.08 85.19C226.47 84.88 225.89 84.54 225.35 84.13L222.42 95.99L261.56 105.63C267.83 107.16 274.13 103.35 275.66 97.08C276.72 92.82 275.26 88.6 272.26 85.8L272.29 85.84Z" fill="#C0392B" fill-opacity="1.000000" fill-rule="nonzero"/>
	<path id="Vector" d="M24.45 4.45L57.9 40.08L37.29 59.43L3.83 23.83C-1.51 18.14 -1.24 9.18 4.45 3.83C10.14 -1.51 19.1 -1.24 24.45 4.45Z" fill="#C0392B" fill-opacity="1.000000" fill-rule="nonzero"/>
	<path id="Vector" d="M20.29 13.85C20.29 17.56 17.26 20.6 13.54 20.6C9.83 20.6 6.8 17.56 6.8 13.85C6.8 10.14 9.83 7.1 13.54 7.1C17.26 7.1 20.29 10.14 20.29 13.85Z" fill="#ECF0F1" fill-opacity="1.000000" fill-rule="nonzero"/>
	<path id="Vector" d="M43.46 40.7C43.46 43.01 41.58 44.89 39.27 44.89C36.95 44.89 35.07 43.01 35.07 40.7C35.07 38.38 36.95 36.51 39.27 36.51C41.58 36.51 43.46 38.38 43.46 40.7Z" fill="#ECF0F1" fill-opacity="1.000000" fill-rule="nonzero"/>
</svg>
