<svg width="61.742310" height="50.982727" viewBox="0 0 61.7423 50.9827" fill="none" xmlns="http://www.w3.org/2000/svg" xmlns:xlink="http://www.w3.org/1999/xlink">
	<desc>
			Created with Pixso.
	</desc>
	<defs/>
	<path id="Vector" d="M9.76 28.22C9.72 27.24 9.72 26.2 10.01 25.26C10.19 24.65 10.64 23.83 11.31 23.63C12.15 23.38 12.78 24.16 12.9 24.91C12.66 23.26 12.82 20.97 13.29 19.36C13.56 18.48 14.05 17.59 14.64 16.91C15.45 16.01 16.15 15.99 16.82 17.01C16.64 16.73 17.07 15.57 17.15 15.26C17.33 14.63 17.58 13.99 17.88 13.4C18.35 12.5 21.11 8.61 22.21 10.87C21.96 10.38 23.62 8.75 23.92 8.46C24.64 7.81 25.68 7.36 26.68 7.53C27.7 7.71 28.64 8.65 28.43 9.75C29.53 8.97 31.17 9.99 31.47 11.3C31.78 12.61 31.23 13.95 30.68 15.18C29.31 18.26 27.96 21.3 26.88 24.46C26 26.97 23.05 29.03 21.03 30.65C18.51 32.65 15.78 34.38 12.92 35.83C11.45 36.56 9.94 37.24 8.39 37.83C7.17 38.3 5.25 38.48 4.19 39.2C6.7 37.56 8.49 34.95 9.31 32.08C9.66 30.85 9.86 29.52 9.8 28.22L9.76 28.22Z" fill="#12826C" fill-opacity="1.000000" fill-rule="nonzero"/>
	<path id="Vector" d="M17.35 42.67C18.19 43.18 19.11 43.67 20.07 43.85C20.7 43.97 21.62 43.97 22.11 43.46C22.72 42.85 22.33 41.91 21.72 41.46C23.07 42.46 25.15 43.4 26.78 43.75C27.68 43.93 28.7 43.93 29.58 43.73C30.76 43.44 31.11 42.83 30.53 41.77C30.7 42.05 31.92 42.24 32.23 42.32C32.88 42.46 33.53 42.54 34.21 42.54C35.23 42.54 39.96 41.97 38.49 39.93C38.8 40.36 41.02 39.71 41.43 39.56C42.35 39.24 43.23 38.54 43.55 37.56C43.88 36.59 43.49 35.3 42.41 34.97C43.62 34.38 43.47 32.46 42.47 31.56C41.47 30.67 40.02 30.52 38.7 30.42C35.33 30.16 32.02 29.91 28.72 29.36C26.09 28.93 22.88 30.57 20.49 31.59C17.54 32.85 14.72 34.42 12.09 36.26C10.74 37.2 9.43 38.22 8.19 39.3C7.19 40.16 6.13 41.75 4.98 42.36C7.62 40.93 10.78 40.58 13.68 41.24C14.92 41.52 16.19 41.97 17.29 42.65L17.35 42.67Z" fill="#12826C" fill-opacity="1.000000" fill-rule="nonzero"/>
	<path id="Vector" d="M25.64 37.61C24.56 38.34 23.31 38.81 22.02 38.99C20.94 39.16 19.92 39.01 18.84 38.85C17.8 38.69 16.78 38.18 15.72 38.28C14.54 38.4 13.41 38.97 12.31 39.38C9.11 40.54 5.17 40.79 1.8 41.44C3.07 41.2 4.88 39.28 5.9 38.48C7.96 36.85 10.15 35.2 11.6 32.93C12.39 31.69 13.13 30.34 13.74 28.99C14.29 27.79 15.05 26.79 16.47 26.65C16.25 24.46 17.09 22.18 18.66 20.65C19.25 20.06 20.15 19.55 20.9 19.91C20.41 19.67 22.07 17.01 22.27 16.77C23 15.89 23.58 14.99 24.47 14.24C24.94 13.85 25.49 13.46 26.11 13.5C26.72 13.55 27.25 14.3 26.9 14.79C27.86 12.95 29.31 11.38 31.07 10.28C31.84 9.79 32.74 9.38 33.64 9.57C34.53 9.73 35.31 10.71 34.96 11.55C35.29 10.71 36.94 9.97 37.7 9.65C38.8 9.2 39.98 8.95 41.17 8.97C43.74 8.97 45.96 10.18 47.72 12.04C49.23 13.65 49.82 15.95 48.39 17.85C48.9 19.32 48.66 21.03 47.74 22.3C46.82 23.57 45.25 24.32 43.7 24.26C44.13 26.08 43.51 28.08 42.19 29.36C40.84 30.65 38.82 31.16 37.02 30.67C36.51 32.61 35.17 34.32 33.39 35.28C31.64 36.26 29.47 36.46 27.56 35.87C27.02 36.56 26.39 37.14 25.7 37.63L25.64 37.61Z" fill="#16A085" fill-opacity="1.000000" fill-rule="nonzero"/>
	<path id="Vector" d="M6.84 49.3C9.84 46.01 13.13 43.16 16.64 40.42C18.19 39.22 23.84 35.38 22.68 33.24C21.29 30.71 11.41 38.38 9.96 39.32C8.33 40.36 6.72 41.52 4.96 42.32C3.47 42.99 1.68 43.38 0.6 44.69C-0.69 46.26 0.47 49.05 1.88 50.16C2.68 50.79 3.74 51.16 4.72 50.89C5.6 50.65 6.25 49.95 6.86 49.28L6.84 49.3Z" fill="#E8F1C6" fill-opacity="1.000000" fill-rule="nonzero"/>
	<path id="Vector" d="M2.78 46.69C2.13 45.89 1.25 45.44 0.47 46.14C-0.36 46.91 0.07 48.14 0.47 49.01C0.74 49.58 1.21 50.12 1.8 50.36C2.47 50.65 3.41 50.46 3.72 49.71C4.01 48.99 3.52 47.61 2.76 46.69L2.78 46.69Z" fill="#F1C40F" fill-opacity="1.000000" fill-rule="nonzero"/>
	<path id="Vector" d="M34.51 21.1C34.84 20.46 35.11 19.81 35.45 19.2C36.9 16.55 38.62 14.04 40.58 11.73C42.58 9.38 44.72 7.38 47.27 5.69C48.43 4.91 49.82 4.14 51.17 3.57C52.51 2.97 54.02 2.83 55.33 2.16C51.86 3.95 48.84 6.5 46.29 9.46C43.43 12.79 40.55 16.12 37.7 19.44C41.21 18.46 44.43 16.57 47 13.99C42.49 19.3 36.66 22.87 30.66 26.22C31.51 25.01 32.35 23.93 33.35 22.87C33.82 22.36 34.19 21.73 34.49 21.1L34.51 21.1Z" fill="#2ECC71" fill-opacity="1.000000" fill-rule="nonzero"/>
	<path id="Vector" d="M37.21 7.1C36.6 13.67 33.86 20.01 29.49 24.97C27.31 27.46 24.74 29.61 22 31.5C19.37 33.34 16.33 34.69 13.78 36.61C20.31 29.26 26.6 21.73 32.41 13.81C33.25 12.67 34.07 11.53 34.88 10.38C35.41 9.65 37.11 7.97 37.19 7.1L37.21 7.1Z" fill="#2ECC71" fill-opacity="1.000000" fill-rule="nonzero"/>
	<path id="Vector" d="M32.33 28.36C34.37 27.14 36.37 25.89 38.25 24.44C43.39 20.48 47.57 15.46 50.98 9.97C50.39 10.91 50.25 12.5 49.86 13.57C49.41 14.81 48.92 16.04 48.35 17.24C46.11 22.1 42.94 26.69 38.8 30.22C34.23 34.1 28.33 36.63 22.66 38.44C21.05 38.95 19.43 39.4 17.78 39.77C16.92 39.95 16.07 40.14 15.21 40.28C14.62 40.38 13.52 40.34 13 40.63C14.84 39.54 16.76 38.59 18.58 37.48C21.25 35.85 23.7 33.79 26.31 32.05C28.27 30.77 30.29 29.59 32.29 28.38L32.33 28.36Z" fill="#2ECC71" fill-opacity="1.000000" fill-rule="nonzero"/>
	<path id="Vector" d="M22.54 29.38C27.88 24.18 33.25 18.97 39.15 14.38C46.11 8.97 54.21 4.65 61.74 0C57.21 2.65 53.06 5.99 49.41 9.75C45.68 13.61 42.62 17.97 39.17 22.06C35.21 26.73 30.41 30.71 25.02 33.67C22.8 34.89 20.47 35.95 18.07 36.83C16.07 37.56 13.21 37.91 11.56 39.3C15.39 36.12 18.96 32.85 22.54 29.38Z" fill="#35EB82" fill-opacity="1.000000" fill-rule="nonzero"/>
</svg>
