<svg width="35.000000" height="74.084229" viewBox="0 0 35 74.0842" fill="none" xmlns="http://www.w3.org/2000/svg" xmlns:xlink="http://www.w3.org/1999/xlink">
	<desc>
			Created with Pixso.
	</desc>
	<defs/>
	<path id="Vector" d="M34 54.64C34 65.38 26.6 74.08 17.5 74.08C8.4 74.08 1.01 65.38 1.01 54.64C1.01 43.9 8.4 35.22 17.5 35.22C26.6 35.22 34 43.92 34 54.64Z" fill="#D35400" fill-opacity="1.000000" fill-rule="nonzero"/>
	<path id="Vector" d="M29.96 67.34C28.48 68.44 27 69.44 25.53 70.34C23.36 69.77 21.09 69 18.74 68C20.71 67.07 22.71 65.95 24.71 64.64C26.77 65.34 28.77 65.88 30.69 66.27C30.88 65.96 31.08 65.67 31.26 65.36C29.5 65.01 27.67 64.55 25.78 63.93C27.48 62.77 29.17 61.46 30.88 60C31.67 60.21 32.44 60.4 33.22 60.55C33.31 60.22 33.38 59.9 33.44 59.57C32.89 59.45 32.34 59.33 31.79 59.19C32.48 58.57 33.15 57.93 33.84 57.26C33.89 56.74 33.94 56.21 33.96 55.67C32.86 56.81 31.74 57.88 30.62 58.88C28.77 58.36 26.86 57.73 24.9 56.9C26.45 55.74 28 54.47 29.53 53.06C31.07 53.61 32.55 54.04 34.01 54.42C34.01 54.05 33.98 53.71 33.96 53.37C32.79 53.06 31.58 52.71 30.36 52.28C31.36 51.31 32.36 50.28 33.34 49.21C33.24 48.83 33.13 48.45 33.01 48.07C31.77 49.45 30.53 50.73 29.27 51.9C27.6 51.28 25.88 50.52 24.14 49.64C25.55 48.47 26.98 47.2 28.38 45.82C29.89 46.51 31.39 47.09 32.86 47.61C32.72 47.18 32.57 46.77 32.39 46.37C31.32 45.97 30.24 45.54 29.14 45.06C29.7 44.47 30.27 43.87 30.82 43.25C30.64 42.96 30.46 42.65 30.26 42.35C29.55 43.13 28.86 43.89 28.15 44.61C26.64 43.89 25.09 43.06 23.54 42.11C24.69 41.08 25.83 39.94 26.95 38.75C26.69 38.53 26.41 38.34 26.14 38.13C24.98 39.36 23.81 40.49 22.62 41.54C21.19 40.63 19.74 39.63 18.31 38.51C19.35 37.67 20.38 36.75 21.42 35.79C21.02 35.67 20.62 35.58 20.23 35.49C19.31 36.32 18.4 37.11 17.5 37.84C16.59 37.1 15.68 36.32 14.78 35.49C14.38 35.58 13.99 35.67 13.59 35.79C14.63 36.75 15.66 37.65 16.69 38.51C15.25 39.63 13.82 40.63 12.39 41.54C11.21 40.49 10.04 39.34 8.87 38.11C8.59 38.32 8.32 38.51 8.06 38.73C9.2 39.92 10.33 41.06 11.47 42.1C9.92 43.04 8.37 43.87 6.85 44.59C6.15 43.87 5.44 43.11 4.75 42.34C4.54 42.63 4.37 42.92 4.18 43.23C4.75 43.85 5.3 44.46 5.87 45.04C4.77 45.54 3.68 45.96 2.61 46.35C2.44 46.77 2.29 47.18 2.15 47.59C3.61 47.09 5.11 46.51 6.63 45.8C8.04 47.2 9.46 48.47 10.87 49.63C9.13 50.5 7.41 51.25 5.73 51.88C4.48 50.71 3.23 49.42 1.99 48.06C1.87 48.44 1.77 48.82 1.67 49.19C2.65 50.28 3.65 51.31 4.65 52.26C3.42 52.69 2.22 53.04 1.05 53.35C1.03 53.69 1.01 54.05 0.99 54.4C2.44 54.02 3.94 53.59 5.48 53.04C7.01 54.45 8.56 55.73 10.11 56.88C8.15 57.69 6.23 58.35 4.39 58.86C3.27 57.88 2.15 56.79 1.05 55.66C1.06 56.19 1.12 56.73 1.17 57.24C1.84 57.91 2.53 58.57 3.22 59.17C2.67 59.31 2.11 59.45 1.56 59.55C1.63 59.88 1.7 60.21 1.79 60.53C2.56 60.36 3.34 60.19 4.13 59.98C5.82 61.45 7.53 62.74 9.23 63.91C7.34 64.53 5.51 64.98 3.75 65.34C3.92 65.65 4.13 65.96 4.32 66.26C6.23 65.86 8.23 65.32 10.3 64.62C12.3 65.91 14.3 67.03 16.26 67.98C13.92 68.98 11.64 69.74 9.47 70.32C8.01 69.43 6.53 68.44 5.04 67.32C6.25 68.96 7.66 70.34 9.27 71.43C9.28 71.43 9.32 71.43 9.34 71.43C10.33 72.01 11.33 72.56 12.32 73.06C13.76 73.63 15.28 73.96 16.87 74.03C14.85 73.22 12.78 72.25 10.7 71.06C12.89 70.44 15.18 69.62 17.5 68.56C19.85 69.62 22.12 70.43 24.31 71.06C22.23 72.25 20.16 73.22 18.14 74.03C19.73 73.96 21.26 73.63 22.71 73.06C23.69 72.56 24.69 72.01 25.69 71.43C25.71 71.43 25.74 71.43 25.76 71.43C27.34 70.34 28.77 68.94 29.98 67.32L29.96 67.34ZM29.69 59.69C27.98 61.12 26.28 62.4 24.57 63.53C22.62 62.84 20.62 62 18.61 60.98C20.36 60.02 22.16 58.9 23.93 57.62C25.9 58.47 27.84 59.14 29.7 59.69L29.69 59.69ZM22.83 57.14C21.04 58.38 19.26 59.47 17.5 60.41C15.75 59.47 13.95 58.38 12.18 57.14C13.94 56.35 15.71 55.42 17.5 54.33C19.3 55.42 21.07 56.35 22.83 57.14ZM12.71 49.82C14.3 48.95 15.9 47.97 17.5 46.87C19.11 47.97 20.71 48.95 22.29 49.82C20.69 51.06 19.09 52.16 17.5 53.14C15.92 52.16 14.32 51.06 12.71 49.82ZM28.45 52.66C26.9 54.05 25.34 55.31 23.79 56.45C22.05 55.67 20.28 54.78 18.49 53.73C20.07 52.73 21.67 51.61 23.28 50.33C25.03 51.25 26.76 52 28.45 52.66ZM22.73 42.78C24.29 43.75 25.86 44.59 27.4 45.33C25.98 46.71 24.57 47.97 23.16 49.11C21.59 48.26 19.99 47.32 18.38 46.23C19.83 45.2 21.28 44.04 22.73 42.78ZM17.5 39.15C18.95 40.29 20.4 41.3 21.85 42.22C20.4 43.46 18.95 44.59 17.5 45.61C16.06 44.59 14.61 43.46 13.16 42.22C14.61 41.29 16.06 40.29 17.5 39.15ZM7.59 45.33C9.13 44.59 10.7 43.75 12.26 42.78C13.71 44.04 15.16 45.2 16.61 46.23C15 47.32 13.42 48.26 11.83 49.11C10.4 47.95 8.99 46.71 7.59 45.33ZM6.56 52.66C8.25 52 9.97 51.25 11.73 50.33C13.33 51.59 14.94 52.71 16.52 53.73C14.73 54.78 12.95 55.69 11.21 56.45C9.66 55.31 8.11 54.05 6.56 52.66ZM5.32 59.69C7.18 59.14 9.11 58.47 11.09 57.62C12.87 58.9 14.66 60 16.42 60.98C14.38 62 12.39 62.84 10.46 63.53C8.75 62.4 7.04 61.14 5.34 59.69L5.32 59.69ZM11.52 64.22C13.47 63.5 15.47 62.64 17.5 61.57C19.54 62.64 21.54 63.5 23.48 64.22C21.47 65.5 19.47 66.57 17.5 67.46C15.54 66.57 13.54 65.5 11.52 64.22Z" fill="#8A3700" fill-opacity="1.000000" fill-rule="nonzero"/>
	<path id="Vector" d="M14.54 48.97C15.5 49.68 16.5 50.37 17.49 50.99C18.47 50.37 19.45 49.69 20.43 48.97C19.43 48.39 18.45 47.78 17.49 47.13C16.52 47.78 15.54 48.39 14.54 48.97Z" fill="#F39C12" fill-opacity="1.000000" fill-rule="nonzero"/>
	<path id="Vector" d="M20.16 45.23C21.11 45.83 22.07 46.4 23.04 46.94C23.95 46.18 24.81 45.42 25.65 44.65C24.71 44.15 23.76 43.63 22.83 43.08C21.93 43.84 21.04 44.56 20.16 45.23Z" fill="#F39C12" fill-opacity="1.000000" fill-rule="nonzero"/>
	<path id="Vector" d="M14.21 56.31C15.3 57.02 16.4 57.67 17.5 58.28C18.61 57.67 19.71 57.02 20.8 56.31C19.69 55.76 18.59 55.17 17.5 54.54C16.42 55.17 15.33 55.76 14.21 56.31Z" fill="#F39C12" fill-opacity="1.000000" fill-rule="nonzero"/>
	<path id="Vector" d="M9.34 44.65C10.18 45.44 11.04 46.2 11.95 46.94C12.92 46.4 13.88 45.83 14.83 45.23C13.94 44.56 13.04 43.84 12.16 43.08C11.23 43.63 10.28 44.15 9.34 44.65Z" fill="#F39C12" fill-opacity="1.000000" fill-rule="nonzero"/>
	<path id="Vector" d="M11.33 54.33C12.42 53.83 13.49 53.3 14.57 52.71C13.56 52.04 12.58 51.31 11.61 50.57C10.58 51.09 9.52 51.57 8.46 52.02C9.4 52.83 10.37 53.61 11.33 54.33Z" fill="#F39C12" fill-opacity="1.000000" fill-rule="nonzero"/>
	<path id="Vector" d="M4.65 56.79C5.8 56.47 6.94 56.07 8.08 55.66C7.11 54.88 6.16 54.09 5.23 53.26C4.17 53.62 3.08 53.97 1.98 54.28C2.84 55.14 3.73 56 4.65 56.81L4.65 56.79Z" fill="#F39C12" fill-opacity="1.000000" fill-rule="nonzero"/>
	<path id="Vector" d="M3.48 47.23C4.29 48.09 5.11 48.94 5.96 49.75C6.97 49.35 8.01 48.9 9.01 48.44C8.11 47.66 7.23 46.87 6.39 46.04C5.42 46.47 4.44 46.87 3.46 47.23L3.48 47.23Z" fill="#F39C12" fill-opacity="1.000000" fill-rule="nonzero"/>
	<path id="Vector" d="M26.9 69.72C27.17 69.79 27.43 69.82 27.69 69.89C28.31 69.32 28.89 68.69 29.43 68.01C28.58 68.62 27.74 69.19 26.9 69.72Z" fill="#F39C12" fill-opacity="1.000000" fill-rule="nonzero"/>
	<path id="Vector" d="M5.54 68.01C6.08 68.69 6.66 69.31 7.28 69.89C7.54 69.84 7.8 69.79 8.08 69.72C7.23 69.19 6.39 68.62 5.54 68.01Z" fill="#F39C12" fill-opacity="1.000000" fill-rule="nonzero"/>
	<path id="Vector" d="M31.51 47.23C30.53 46.87 29.55 46.47 28.58 46.04C27.74 46.87 26.86 47.66 25.96 48.44C26.98 48.9 28 49.35 29.02 49.75C29.86 48.94 30.69 48.09 31.5 47.23L31.51 47.23Z" fill="#F39C12" fill-opacity="1.000000" fill-rule="nonzero"/>
	<path id="Vector" d="M14.23 59.93C13.11 59.26 12.02 58.55 10.96 57.81C9.78 58.29 8.61 58.74 7.41 59.14C8.44 59.95 9.49 60.72 10.56 61.45C11.78 61 13.01 60.5 14.21 59.95L14.23 59.93Z" fill="#F39C12" fill-opacity="1.000000" fill-rule="nonzero"/>
	<path id="Vector" d="M12.47 39.29C13.35 38.72 14.21 38.11 15.06 37.49C14.45 36.98 13.85 36.43 13.25 35.87C12.23 36.2 11.25 36.63 10.3 37.17C11.02 37.91 11.75 38.61 12.47 39.29Z" fill="#F39C12" fill-opacity="1.000000" fill-rule="nonzero"/>
	<path id="Vector" d="M20.42 52.69C21.48 53.28 22.57 53.83 23.66 54.31C24.62 53.59 25.59 52.81 26.53 52C25.47 51.56 24.41 51.07 23.38 50.56C22.42 51.3 21.43 52 20.42 52.69Z" fill="#F39C12" fill-opacity="1.000000" fill-rule="nonzero"/>
	<path id="Vector" d="M32.24 50.87C32.7 51 33.19 51.14 33.69 51.28C33.69 51.06 33.65 50.85 33.63 50.63C33.58 50.3 33.5 49.97 33.43 49.64C33.03 50.06 32.63 50.47 32.24 50.87Z" fill="#F39C12" fill-opacity="1.000000" fill-rule="nonzero"/>
	<path id="Vector" d="M25.21 40.94C26.1 41.46 27.02 41.94 27.93 42.39C28.36 41.94 28.79 41.47 29.22 40.99C28.6 40.25 27.91 39.58 27.19 38.96C26.52 39.65 25.86 40.32 25.21 40.96L25.21 40.94Z" fill="#F39C12" fill-opacity="1.000000" fill-rule="nonzero"/>
	<path id="Vector" d="M21.19 63.45C19.93 62.93 18.69 62.36 17.49 61.74C16.28 62.34 15.04 62.91 13.78 63.45C14.99 64.14 16.23 64.79 17.49 65.38C18.74 64.79 19.99 64.14 21.19 63.45Z" fill="#F39C12" fill-opacity="1.000000" fill-rule="nonzero"/>
	<path id="Vector" d="M3.05 63.5C4.35 63.24 5.66 62.95 6.94 62.58C5.91 61.81 4.87 61 3.87 60.16C3.18 60.33 2.49 60.47 1.8 60.62C2.05 61.52 2.36 62.38 2.7 63.21C2.82 63.31 2.92 63.41 3.05 63.52L3.05 63.5Z" fill="#F39C12" fill-opacity="1.000000" fill-rule="nonzero"/>
	<path id="Vector" d="M7.06 42.39C7.97 41.94 8.87 41.46 9.78 40.94C9.11 40.3 8.46 39.65 7.78 38.96C7.06 39.58 6.39 40.25 5.77 40.99C6.2 41.47 6.63 41.94 7.06 42.39Z" fill="#F39C12" fill-opacity="1.000000" fill-rule="nonzero"/>
	<path id="Vector" d="M4.11 43.71C4.11 43.71 4.01 43.59 3.96 43.54C3.91 43.65 3.84 43.75 3.77 43.84C3.89 43.78 3.99 43.75 4.11 43.71Z" fill="#F39C12" fill-opacity="1.000000" fill-rule="nonzero"/>
	<path id="Vector" d="M2.75 50.87C2.34 50.45 1.96 50.04 1.56 49.61C1.44 50.16 1.34 50.71 1.25 51.28C1.75 51.14 2.25 51.02 2.75 50.87Z" fill="#F39C12" fill-opacity="1.000000" fill-rule="nonzero"/>
	<path id="Vector" d="M21.71 70.34C20.3 69.86 18.88 69.32 17.5 68.7C16.11 69.31 14.71 69.86 13.3 70.34C14.68 71.03 16.07 71.67 17.5 72.24C18.93 71.67 20.35 71.03 21.71 70.34Z" fill="#F39C12" fill-opacity="1.000000" fill-rule="nonzero"/>
	<path id="Vector" d="M9.63 68.27C11.02 67.89 12.44 67.43 13.8 66.91C12.58 66.26 11.35 65.55 10.16 64.77C8.84 65.2 7.49 65.6 6.15 65.93C7.28 66.76 8.44 67.53 9.63 68.25L9.63 68.27Z" fill="#F39C12" fill-opacity="1.000000" fill-rule="nonzero"/>
	<path id="Vector" d="M33.01 60.6C32.38 60.47 31.74 60.31 31.12 60.16C30.12 61 29.08 61.83 28.05 62.58C29.33 62.95 30.64 63.24 31.94 63.5C32.03 63.43 32.17 63.29 32.31 63.19C32.46 62.81 32.63 62.43 32.77 62.03C32.86 61.55 32.94 61.09 33.03 60.6L33.01 60.6Z" fill="#F39C12" fill-opacity="1.000000" fill-rule="nonzero"/>
	<path id="Vector" d="M31.77 58.24C32.41 58.4 33.01 58.54 33.63 58.66C33.77 57.85 33.87 57.02 33.93 56.19C33.22 56.9 32.5 57.6 31.77 58.24Z" fill="#F39C12" fill-opacity="1.000000" fill-rule="nonzero"/>
	<path id="Vector" d="M20.76 59.93C21.97 60.48 23.19 60.98 24.41 61.43C25.48 60.71 26.55 59.93 27.57 59.12C26.38 58.72 25.19 58.28 24.03 57.79C22.97 58.54 21.86 59.24 20.76 59.91L20.76 59.93Z" fill="#F39C12" fill-opacity="1.000000" fill-rule="nonzero"/>
	<path id="Vector" d="M33 54.26C31.88 53.95 30.81 53.62 29.74 53.26C28.83 54.09 27.88 54.9 26.9 55.66C28.03 56.09 29.19 56.47 30.32 56.79C31.22 56 32.12 55.14 32.98 54.26L33 54.26Z" fill="#F39C12" fill-opacity="1.000000" fill-rule="nonzero"/>
	<path id="Vector" d="M28.84 65.95C27.5 65.62 26.15 65.24 24.83 64.79C23.62 65.55 22.42 66.27 21.19 66.93C22.57 67.44 23.97 67.89 25.36 68.29C26.55 67.57 27.71 66.77 28.84 65.96L28.84 65.95Z" fill="#F39C12" fill-opacity="1.000000" fill-rule="nonzero"/>
	<path id="Vector" d="M17.49 43.4C18.38 42.75 19.26 42.08 20.12 41.35C19.21 40.73 18.33 40.11 17.49 39.46C16.62 40.11 15.76 40.73 14.85 41.35C15.71 42.08 16.61 42.75 17.49 43.4Z" fill="#F39C12" fill-opacity="1.000000" fill-rule="nonzero"/>
	<path id="Vector" d="M19.93 37.49C20.78 38.11 21.64 38.72 22.52 39.29C23.24 38.63 23.97 37.91 24.69 37.17C23.76 36.63 22.78 36.2 21.76 35.87C21.16 36.43 20.55 36.96 19.95 37.49L19.93 37.49Z" fill="#F39C12" fill-opacity="1.000000" fill-rule="nonzero"/>
	<path id="Vector" d="M30.88 43.71C31 43.77 31.1 43.8 31.22 43.85C31.17 43.75 31.1 43.65 31.03 43.54C30.98 43.59 30.93 43.66 30.88 43.71Z" fill="#F39C12" fill-opacity="1.000000" fill-rule="nonzero"/>
	<path id="Vector" d="M20.07 24.12C15.61 10.16 25.24 5.01 29.5 4.6C25.33 7.25 29.5 16.93 23.36 23.64C22.73 24.35 20.07 24.12 20.07 24.12Z" fill="#186B3B" fill-opacity="1.000000" fill-rule="nonzero"/>
	<path id="Vector" d="M14.92 24.12C19.38 10.16 9.75 5.01 5.49 4.6C9.66 7.25 5.49 16.93 11.63 23.64C12.26 24.35 14.92 24.12 14.92 24.12Z" fill="#186B3B" fill-opacity="1.000000" fill-rule="nonzero"/>
	<path id="Vector" d="M11.54 26.29C11.54 30.07 14.21 38.32 17.5 38.32C20.8 38.32 23.47 30.07 23.47 26.29C23.47 13.59 17.5 0 17.5 0C17.5 0 11.54 12.7 11.54 26.29Z" fill="#1F8C4D" fill-opacity="1.000000" fill-rule="nonzero"/>
	<path id="Vector" d="M17.33 27.05C20.14 12.66 31.05 12.78 35 14.49C30.07 14.82 29.05 25.29 20.45 28.22C19.55 28.53 17.33 27.07 17.33 27.07L17.33 27.05Z" fill="#1DA155" fill-opacity="1.000000" fill-rule="nonzero"/>
	<path id="Vector" d="M17.66 27.05C14.85 12.66 3.94 12.78 0 14.49C4.92 14.82 5.94 25.29 14.54 28.22C15.44 28.53 17.66 27.07 17.66 27.07L17.66 27.05Z" fill="#1DA155" fill-opacity="1.000000" fill-rule="nonzero"/>
	<path id="Vector" d="M12.08 30.14C12.08 32.7 14.51 38.32 17.49 38.32C20.47 38.32 22.9 32.7 22.9 30.14C22.9 21.48 17.49 12.23 17.49 12.23C17.49 12.23 12.08 20.88 12.08 30.14Z" fill="#186B3B" fill-opacity="1.000000" fill-rule="nonzero"/>
	<path id="Vector" d="M17.93 33.74C19.55 24.4 27.81 23.59 32.01 24.4C28.67 25.97 21.29 37.92 18.31 35.91C17.52 35.37 17.93 33.75 17.93 33.75L17.93 33.74Z" fill="#27AE60" fill-opacity="1.000000" fill-rule="nonzero"/>
	<path id="Vector" d="M17.06 33.74C15.44 24.4 7.18 23.59 2.98 24.4C6.32 25.97 13.7 37.92 16.68 35.91C17.47 35.37 17.06 33.75 17.06 33.75L17.06 33.74Z" fill="#27AE60" fill-opacity="1.000000" fill-rule="nonzero"/>
	<path id="Vector" d="M12.59 33.96C12.59 35.32 14.78 38.34 17.5 38.34C20.23 38.34 22.42 35.34 22.42 33.96C22.42 29.34 17.5 24.4 17.5 24.4C17.5 24.4 12.59 29.02 12.59 33.96Z" fill="#1F8C4D" fill-opacity="1.000000" fill-rule="nonzero"/>
	<g opacity="0.700000" style="mix-blend-mode:multiply">
		<path id="Vector" d="M17.49 35.2C14.61 35.2 11.9 36.08 9.54 37.61C9.73 37.58 9.92 37.56 10.13 37.56C12.28 37.56 13.32 39.99 13.09 41.89C14.23 40.84 16 40.54 17.42 41.2C18.83 41.85 19.76 43.4 19.69 44.94C20.8 44.15 22.4 44.13 23.52 44.9C24.64 45.66 25.22 47.16 24.9 48.47C26.22 48.52 27.29 49.68 27.67 50.94C28.05 52.19 27.9 53.55 27.74 54.86C28.19 56.04 27.96 57.35 27.74 58.57C27.62 59.26 27.48 59.97 27.26 60.62C26.91 61.62 26.31 62.55 25.55 63.29C25.47 64.43 25.03 65.53 24.35 66.44C23.48 67.57 22.26 68.32 20.97 68.89C18.88 69.82 16.59 70.25 14.3 70.18C11.42 70.08 8.8 68.89 6.01 68.56C8.59 71.99 13.25 74.08 17.49 74.08C26.6 74.08 33.98 65.38 33.98 54.64C33.98 43.9 26.59 35.22 17.49 35.22L17.49 35.2Z" fill="#8D734E" fill-opacity="1.000000" fill-rule="nonzero"/>
	</g>
	<path id="Vector" d="M18.16 36.22C19.02 32.1 25.53 30.76 28.03 31.03C25.24 32.65 24.88 37.91 18.74 37.92C17.88 37.92 18.16 36.22 18.16 36.22Z" fill="#186B3B" fill-opacity="1.000000" fill-rule="nonzero"/>
	<path id="Vector" d="M16.83 36.22C15.97 32.1 9.46 30.76 6.96 31.03C9.75 32.65 10.11 37.91 16.25 37.92C17.09 37.92 16.83 36.22 16.83 36.22Z" fill="#186B3B" fill-opacity="1.000000" fill-rule="nonzero"/>
	<path id="Vector" d="M12.59 35.87C12.56 37.24 14.78 38.32 17.5 38.32C20.23 38.32 22.45 37.25 22.42 35.87C22.36 34.15 17.5 31.03 17.5 31.03C17.5 31.03 12.64 34.15 12.59 35.87Z" fill="#27AE60" fill-opacity="1.000000" fill-rule="nonzero"/>
</svg>
