<svg width="95.056427" height="95.345886" viewBox="0 0 95.0564 95.3459" fill="none" xmlns="http://www.w3.org/2000/svg" xmlns:xlink="http://www.w3.org/1999/xlink">
	<desc>
			Created with Pixso.
	</desc>
	<defs/>
	<path id="Vector" d="M12.15 36.88C27.02 43.49 65.56 41.93 78.07 34.52C78.46 34.28 79.31 37.32 79.63 37.3C72.39 60.19 34.27 76.88 12.15 36.88Z" fill="#F39C12" fill-opacity="1.000000" fill-rule="nonzero"/>
	<path id="Vector" d="M66.83 50.27C52.27 57.28 35.86 52.23 25.76 40.2C20.36 39.52 15.59 38.42 12.13 36.89C33.06 74.77 68.33 61.83 78.17 40.9C75.1 44.85 71.26 48.1 66.79 50.25L66.83 50.27Z" fill="#E67E22" fill-opacity="1.000000" fill-rule="nonzero"/>
	<path id="Vector" d="M12.42 36.05C12.58 36.19 12.01 36.75 12.15 36.88C26.29 50.78 55.4 59.65 78.07 34.52C78.38 34.17 77.67 32.18 77.97 31.81C65.55 39.4 25.02 38.95 12.41 36.02L12.42 36.05Z" fill="#F1C40F" fill-opacity="1.000000" fill-rule="nonzero"/>
	<path id="Vector" d="M77.52 35.12L77.97 31.81C77.97 31.81 79.89 33.05 80.25 33.8C80.61 34.56 80.48 36.78 79.63 37.3C78.79 37.82 76.96 35.72 77.52 35.12Z" fill="#34495E" fill-opacity="1.000000" fill-rule="nonzero"/>
	<path id="Vector" d="M21.59 38.22C21.87 38.82 21.63 39.55 21.07 39.82C20.5 40.1 19.79 39.85 19.49 39.23C19.19 38.62 19.44 37.91 20.01 37.64C20.58 37.36 21.29 37.61 21.59 38.22Z" fill="#F39C12" fill-opacity="1.000000" fill-rule="nonzero"/>
	<path id="Vector" d="M24.3 42.05C24.54 42.55 24.35 43.15 23.87 43.38C23.4 43.61 22.81 43.39 22.57 42.89C22.33 42.39 22.52 41.79 23 41.56C23.47 41.33 24.06 41.55 24.3 42.05Z" fill="#F39C12" fill-opacity="1.000000" fill-rule="nonzero"/>
	<path id="Vector" d="M31.51 40.01C31.88 40.78 31.59 41.68 30.84 42.04C30.09 42.41 29.2 42.08 28.82 41.3C28.45 40.53 28.75 39.63 29.5 39.27C30.25 38.9 31.14 39.23 31.51 40.01Z" fill="#F39C12" fill-opacity="1.000000" fill-rule="nonzero"/>
	<path id="Vector" d="M35.22 40.07C35.44 40.54 35.27 41.09 34.83 41.3C34.39 41.51 33.85 41.31 33.63 40.84C33.4 40.38 33.58 39.83 34.02 39.61C34.46 39.4 35 39.61 35.22 40.07Z" fill="#F39C12" fill-opacity="1.000000" fill-rule="evenodd"/>
	<path id="Vector" d="M37.94 39.38C38.11 39.72 37.97 40.12 37.65 40.28C37.33 40.43 36.92 40.29 36.76 39.95C36.59 39.61 36.74 39.2 37.06 39.05C37.37 38.89 37.78 39.04 37.94 39.38Z" fill="#F39C12" fill-opacity="1.000000" fill-rule="nonzero"/>
	<path id="Vector" d="M34.34 44.06C34.62 44.66 34.4 45.35 33.83 45.63C33.26 45.9 32.57 45.64 32.29 45.05C32 44.46 32.23 43.76 32.8 43.49C33.36 43.21 34.05 43.47 34.34 44.06Z" fill="#F39C12" fill-opacity="1.000000" fill-rule="nonzero"/>
	<path id="Vector" d="M44.63 39.86C44.8 40.2 44.65 40.61 44.34 40.76C44.02 40.91 43.61 40.77 43.45 40.43C43.28 40.09 43.42 39.68 43.74 39.53C44.06 39.38 44.47 39.52 44.63 39.86Z" fill="#F39C12" fill-opacity="1.000000" fill-rule="nonzero"/>
	<path id="Vector" d="M53.48 40.81C53.84 41.55 53.55 42.44 52.83 42.78C52.12 43.13 51.24 42.81 50.89 42.06C50.53 41.32 50.82 40.44 51.54 40.09C52.25 39.75 53.13 40.07 53.48 40.81Z" fill="#F39C12" fill-opacity="1.000000" fill-rule="evenodd"/>
	<path id="Vector" d="M56.4 40.11C56.54 40.4 56.41 40.78 56.12 40.92C55.82 41.06 55.45 40.93 55.31 40.63C55.16 40.34 55.29 39.97 55.59 39.82C55.89 39.68 56.26 39.81 56.4 40.11Z" fill="#F39C12" fill-opacity="1.000000" fill-rule="nonzero"/>
	<path id="Vector" d="M60.7 38.37C60.92 38.83 60.74 39.39 60.31 39.6C59.88 39.81 59.34 39.62 59.1 39.14C58.87 38.66 59.06 38.12 59.5 37.91C59.93 37.71 60.47 37.89 60.7 38.37Z" fill="#F39C12" fill-opacity="1.000000" fill-rule="nonzero"/>
	<path id="Vector" d="M64.15 37.61C64.33 38 64.17 38.47 63.8 38.64C63.44 38.82 62.97 38.65 62.78 38.27C62.59 37.88 62.76 37.41 63.12 37.23C63.49 37.06 63.96 37.22 64.15 37.61Z" fill="#F39C12" fill-opacity="1.000000" fill-rule="nonzero"/>
	<path id="Vector" d="M11.51 38.06C20.55 51.86 54.12 72.36 68.75 73.36C69.22 73.39 68.28 76.34 68.57 76.54C50.05 91.16 8.66 83.27 11.51 38.06Z" fill="#F39C12" fill-opacity="1.000000" fill-rule="nonzero"/>
	<path id="Vector" d="M12.21 37.52C12.25 37.73 11.48 37.87 11.51 38.06C16.02 57.41 35.95 81.12 68.75 73.36C69.21 73.26 69.69 71.23 70.13 71.1C55.48 70.28 21.31 47.03 12.2 37.5L12.21 37.52Z" fill="#F1C40F" fill-opacity="1.000000" fill-rule="nonzero"/>
	<path id="Vector" d="M67.95 73.56L70.12 71.13C70.12 71.13 71.07 73.23 70.98 74.03C70.89 74.83 69.55 76.6 68.55 76.55C67.54 76.5 67.14 73.75 67.92 73.57L67.95 73.56Z" fill="#34495E" fill-opacity="1.000000" fill-rule="nonzero"/>
	<path id="Vector" d="M18.79 44.48C18.72 45.14 18.12 45.59 17.48 45.48C16.83 45.37 16.38 44.78 16.46 44.12C16.53 43.47 17.13 43.01 17.77 43.12C18.41 43.23 18.87 43.83 18.79 44.48Z" fill="#F39C12" fill-opacity="1.000000" fill-rule="nonzero"/>
	<path id="Vector" d="M19.02 49.15C18.94 49.69 18.47 50.05 17.93 49.98C17.39 49.9 17.03 49.38 17.08 48.85C17.15 48.3 17.62 47.94 18.16 48.01C18.71 48.09 19.07 48.61 19.02 49.15Z" fill="#F39C12" fill-opacity="1.000000" fill-rule="nonzero"/>
	<path id="Vector" d="M26.24 51.56C26.14 52.39 25.39 52.98 24.56 52.84C23.74 52.71 23.16 51.92 23.24 51.09C23.35 50.26 24.08 49.68 24.92 49.81C25.75 49.94 26.32 50.73 26.24 51.56Z" fill="#F39C12" fill-opacity="1.000000" fill-rule="nonzero"/>
	<path id="Vector" d="M29.36 53.7C29.29 54.21 28.84 54.55 28.35 54.47C27.87 54.4 27.5 53.93 27.56 53.42C27.63 52.91 28.08 52.58 28.57 52.65C29.05 52.73 29.42 53.2 29.36 53.7Z" fill="#F39C12" fill-opacity="1.000000" fill-rule="nonzero"/>
	<path id="Vector" d="M32.05 54.68C31.99 55.04 31.67 55.31 31.31 55.26C30.95 55.21 30.7 54.86 30.75 54.49C30.8 54.13 31.12 53.87 31.48 53.92C31.84 53.97 32.1 54.32 32.05 54.68Z" fill="#F39C12" fill-opacity="1.000000" fill-rule="nonzero"/>
	<path id="Vector" d="M26.44 56.46C26.37 57.11 25.78 57.53 25.18 57.43C24.54 57.34 24.11 56.74 24.17 56.09C24.25 55.46 24.83 55.02 25.44 55.12C26.04 55.22 26.5 55.81 26.44 56.46Z" fill="#F39C12" fill-opacity="1.000000" fill-rule="nonzero"/>
	<path id="Vector" d="M37.47 58.83C37.42 59.19 37.1 59.46 36.74 59.41C36.38 59.36 36.12 59 36.17 58.64C36.22 58.28 36.54 58.02 36.9 58.07C37.27 58.12 37.52 58.47 37.47 58.83Z" fill="#F39C12" fill-opacity="1.000000" fill-rule="nonzero"/>
	<path id="Vector" d="M44.44 64.62C44.35 65.42 43.63 65.97 42.85 65.86C42.06 65.74 41.51 65 41.6 64.2C41.69 63.39 42.41 62.85 43.21 62.94C44 63.07 44.56 63.81 44.47 64.61L44.44 64.62Z" fill="#F39C12" fill-opacity="1.000000" fill-rule="nonzero"/>
	<path id="Vector" d="M47.31 65.68C47.27 66.01 46.96 66.24 46.64 66.2C46.3 66.14 46.06 65.83 46.1 65.5C46.14 65.18 46.45 64.94 46.78 64.98C47.11 65.02 47.35 65.35 47.31 65.68Z" fill="#F39C12" fill-opacity="1.000000" fill-rule="nonzero"/>
	<path id="Vector" d="M51.93 66.71C51.87 67.22 51.41 67.55 50.93 67.47C50.44 67.4 50.07 66.93 50.14 66.42C50.2 65.91 50.66 65.58 51.14 65.66C51.63 65.73 52 66.2 51.93 66.71Z" fill="#F39C12" fill-opacity="1.000000" fill-rule="nonzero"/>
	<path id="Vector" d="M55.25 68.06C55.2 68.47 54.81 68.77 54.39 68.72C53.96 68.65 53.66 68.26 53.74 67.83C53.79 67.41 54.18 67.11 54.59 67.17C55.02 67.24 55.32 67.63 55.25 68.06Z" fill="#F39C12" fill-opacity="1.000000" fill-rule="nonzero"/>
	<path id="Vector" d="M9.69 26.64C10.09 25.66 11.96 25.18 12.83 25.07C13.82 24.96 14.54 25 15.51 25.38C16.19 25.64 16.86 25.91 17.54 26.17C17.85 26.27 18.16 26.4 18.35 26.68C18.49 26.86 18.56 27.11 18.61 27.34C18.66 27.56 18.73 27.81 18.78 28.04C18.88 28.41 18.99 28.81 19.03 29.19C19.15 30.44 18.6 31.8 17.54 32.4C16.46 33 14.91 32.71 14.23 31.64C14.28 31.75 13.81 32.74 13.76 32.93C13.66 33.32 13.54 33.77 13.5 34.15C13.4 35.04 13.95 35.95 14.76 36.35C14.97 36.44 15.22 36.55 15.3 36.77C15.38 36.95 15.29 37.16 15.21 37.34C14.94 37.89 14.59 38.56 13.95 38.34C13.46 38.19 12.83 37.42 12.75 36.9C12.87 37.49 12.95 38.07 13.04 38.67C13.12 39.19 13.26 39.35 12.78 39.52C12.13 39.75 11.63 39.18 11.41 38.61C11.04 37.66 11.2 36.3 11.2 35.32C11.19 33.08 11.22 30.7 10.21 28.61C9.97 28.11 9.68 27.63 9.65 27.08C9.63 26.92 9.66 26.77 9.73 26.62L9.69 26.64Z" fill="#F1C40F" fill-opacity="1.000000" fill-rule="nonzero"/>
	<path id="Vector" d="M10.34 25.91C10.59 26.07 10.81 26.3 10.98 26.69C11.11 26.97 11.16 27.25 11.13 27.55C11.33 28.12 11.68 28.51 12.18 28.73C12.33 28.93 12.48 29.11 12.6 29.31C13.17 29.51 13.57 29.85 13.89 30.34C14.95 30.45 16.16 30.4 16.96 29.96C17.86 29.5 18.18 28.47 18.62 27.53C18.59 27.46 18.58 27.38 18.57 27.3C18.51 27.08 18.45 26.83 18.3 26.64C18.09 26.38 17.78 26.25 17.5 26.13C16.81 25.87 16.15 25.6 15.46 25.35C14.5 24.97 13.77 24.93 12.79 25.04C12.18 25.11 11.07 25.38 10.33 25.88L10.34 25.91Z" fill="#FFDE59" fill-opacity="1.000000" fill-rule="nonzero"/>
</svg>
