<svg width="36.203308" height="34.377457" viewBox="0 0 36.2033 34.3775" fill="none" xmlns="http://www.w3.org/2000/svg" xmlns:xlink="http://www.w3.org/1999/xlink">
	<desc>
			Created with Pixso.
	</desc>
	<defs/>
	<path id="Vector" d="M28.98 3.1C28.72 3.49 28.28 3.75 27.78 3.78C27.01 3.8 26.37 3.1 26.37 2.36L26.37 2.32C26.37 2.23 26.37 2.16 26.4 2.08L21.16 0L16.34 3.59C16.48 4.37 16.04 5.29 15 5.29C14.73 5.29 14.49 5.22 14.3 5.1L10.64 7.84C11.52 8.57 11.22 10.38 9.77 10.38C9.07 10.38 8.64 9.97 8.48 9.45L3.58 13.1C3.69 13.89 3.25 14.76 2.22 14.76C1.96 14.76 1.75 14.7 1.56 14.6L0 15.77L36.2 5.97L28.98 3.1Z" fill="#FFDF5C" fill-opacity="1.000000" fill-rule="nonzero"/>
	<path id="Vector" d="M36.1 8.98L36.2 5.97L0 15.77L0.07 17.44C0.29 17.54 0.48 17.75 0.48 18.08L0.48 18.17C0.48 18.47 0.34 18.67 0.14 18.78C0.89 19.44 0.94 20.74 0.25 21.45L0.32 22.89C0.32 22.89 0.32 22.89 0.34 22.89C1.66 22.89 1.68 24.89 0.41 24.97L0.45 25.96C2.16 26.3 2.22 28.89 0.61 29.38L0.64 29.95C1.08 29.71 1.78 29.89 1.78 30.56L1.78 30.65C1.78 31.29 1.14 31.49 0.69 31.29L0.84 34.37L35.47 26.53L35.54 24.63C34.87 24.43 34.89 23.36 35.6 23.2L35.71 19.87C35.71 19.87 35.7 19.87 35.68 19.87C34.71 19.87 34.71 18.37 35.68 18.37C35.71 18.37 35.74 18.37 35.77 18.38L35.77 17.88C35.17 17.74 34.7 17.13 34.7 16.5L34.7 16.41C34.7 15.7 35.23 15.16 35.88 15.03L35.98 12.18C35.76 12.43 35.43 12.6 34.99 12.6C33.16 12.6 33.16 9.78 34.99 9.78C35.23 9.78 35.43 9.84 35.6 9.91C35.51 9.54 35.67 9.1 36.1 9L36.1 8.98Z" fill="#F1C40F" fill-opacity="1.000000" fill-rule="nonzero"/>
	<path id="Vector" d="M16.7 9.07C16.7 9.72 15.54 10.25 14.1 10.25C12.66 10.25 11.51 9.72 11.51 9.07C11.51 8.41 12.66 7.88 14.1 7.88C15.54 7.88 16.7 8.41 16.7 9.07Z" fill="#F1C40F" fill-opacity="1.000000" fill-rule="nonzero"/>
	<path id="Vector" d="M10.04 11.22C10.04 11.44 9.68 11.61 9.24 11.61C8.8 11.61 8.44 11.44 8.44 11.22C8.44 11.01 8.8 10.84 9.24 10.84C9.68 10.84 10.04 11.01 10.04 11.22Z" fill="#F1C40F" fill-opacity="1.000000" fill-rule="nonzero"/>
	<path id="Vector" d="M12.86 11.15C12.86 11.32 12.56 11.46 12.19 11.46C11.82 11.46 11.52 11.32 11.52 11.15C11.52 10.98 11.82 10.84 12.19 10.84C12.56 10.84 12.86 10.98 12.86 11.15Z" fill="#F1C40F" fill-opacity="1.000000" fill-rule="nonzero"/>
	<path id="Vector" d="M23.06 5.57C23.06 6.14 21.88 6.61 20.42 6.61C18.97 6.61 17.78 6.14 17.78 5.57C17.78 5 18.97 4.53 20.42 4.53C21.88 4.53 23.06 5 23.06 5.57Z" fill="#F1C40F" fill-opacity="1.000000" fill-rule="nonzero"/>
	<path id="Vector" d="M25.1 3.87C25.1 4.09 24.64 4.26 24.09 4.26C23.53 4.26 23.08 4.09 23.08 3.87C23.08 3.66 23.53 3.49 24.09 3.49C24.64 3.49 25.1 3.66 25.1 3.87Z" fill="#F1C40F" fill-opacity="1.000000" fill-rule="nonzero"/>
	<path id="Vector" d="M20.79 8.04C20.79 8.27 20.36 8.45 19.84 8.45C19.31 8.45 18.88 8.27 18.88 8.04C18.88 7.81 19.31 7.63 19.84 7.63C20.36 7.63 20.79 7.81 20.79 8.04Z" fill="#F1C40F" fill-opacity="1.000000" fill-rule="nonzero"/>
	<path id="Vector" d="M31.82 5.57C31.82 6.14 30.68 6.61 29.25 6.61C27.83 6.61 26.68 6.14 26.68 5.57C26.68 5 27.83 4.53 29.25 4.53C30.68 4.53 31.82 5 31.82 5.57Z" fill="#F1C40F" fill-opacity="1.000000" fill-rule="nonzero"/>
	<path id="Vector" d="M22.28 2.09C22.28 2.25 21.99 2.39 21.63 2.39C21.28 2.39 20.99 2.26 20.99 2.09C20.99 1.92 21.28 1.79 21.63 1.79C21.99 1.79 22.28 1.92 22.28 2.09Z" fill="#F1C40F" fill-opacity="1.000000" fill-rule="nonzero"/>
	<path id="Vector" d="M25.96 7.33C25.96 7.48 25.66 7.63 25.27 7.63C24.89 7.63 24.59 7.5 24.59 7.33C24.59 7.16 24.89 7.03 25.27 7.03C25.66 7.03 25.96 7.16 25.96 7.33Z" fill="#F1C40F" fill-opacity="1.000000" fill-rule="nonzero"/>
	<path id="Vector" d="M6.53 12.9C6.53 13.15 6.14 13.33 5.67 13.33C5.2 13.33 4.82 13.15 4.82 12.9C4.82 12.66 5.2 12.48 5.67 12.48C6.14 12.48 6.53 12.68 6.53 12.9Z" fill="#F1C40F" fill-opacity="1.000000" fill-rule="nonzero"/>
	<path id="Vector" d="M13.33 21.15C13.33 19.52 14.5 18.2 15.93 18.2C17.35 18.2 18.52 19.52 18.52 21.15C18.52 22.78 17.35 24.1 15.93 24.1C14.5 24.1 13.33 22.78 13.33 21.15Z" fill="#F39C12" fill-opacity="1.000000" fill-rule="nonzero"/>
	<path id="Vector" d="M29.67 10.37C29.67 9.64 30.18 9.05 30.82 9.05C31.46 9.05 31.98 9.64 31.98 10.37C31.98 11.09 31.46 11.68 30.82 11.68C30.18 11.68 29.67 11.09 29.67 10.37Z" fill="#F39C12" fill-opacity="1.000000" fill-rule="nonzero"/>
	<path id="Vector" d="M6.1 25.97C6.1 24.64 7.04 23.57 8.21 23.57C9.38 23.57 10.32 24.64 10.32 25.97C10.32 27.3 9.38 28.37 8.21 28.37C7.04 28.37 6.1 27.3 6.1 25.97Z" fill="#F39C12" fill-opacity="1.000000" fill-rule="nonzero"/>
	<path id="Vector" d="M25.3 24.92C25.3 23.52 26.3 22.38 27.54 22.38C28.78 22.38 29.78 23.5 29.78 24.92C29.78 26.33 28.78 27.45 27.54 27.45C26.3 27.45 25.3 26.33 25.3 24.92Z" fill="#F39C12" fill-opacity="1.000000" fill-rule="nonzero"/>
	<path id="Vector" d="M15.57 29.28C15.57 28.78 15.93 28.38 16.37 28.38C16.81 28.38 17.17 28.78 17.17 29.28C17.17 29.78 16.81 30.18 16.37 30.18C15.93 30.18 15.57 29.78 15.57 29.28Z" fill="#F39C12" fill-opacity="1.000000" fill-rule="nonzero"/>
	<path id="Vector" d="M18.88 13.33C18.88 12.55 19.44 11.92 20.12 11.92C20.81 11.92 21.36 12.55 21.36 13.33C21.36 14.12 20.81 14.74 20.12 14.74C19.44 14.74 18.88 14.12 18.88 13.33Z" fill="#F39C12" fill-opacity="1.000000" fill-rule="nonzero"/>
	<path id="Vector" d="M8.01 19.07C8.01 17.94 8.82 17.03 9.81 17.03C10.79 17.03 11.61 17.94 11.61 19.07C11.61 20.19 10.79 21.11 9.81 21.11C8.82 21.11 8.01 20.19 8.01 19.07Z" fill="#F39C12" fill-opacity="1.000000" fill-rule="nonzero"/>
	<path id="Vector" d="M1.69 24.27C1.69 23.92 1.95 23.63 2.26 23.63C2.58 23.63 2.83 23.92 2.83 24.27C2.83 24.63 2.58 24.92 2.26 24.92C1.95 24.92 1.69 24.63 1.69 24.27Z" fill="#F39C12" fill-opacity="1.000000" fill-rule="nonzero"/>
	<path id="Vector" d="M5.09 28.72C5.09 28.11 5.53 27.6 6.07 27.6C6.61 27.6 7.06 28.1 7.06 28.72C7.06 29.35 6.61 29.85 6.07 29.85C5.53 29.85 5.09 29.35 5.09 28.72Z" fill="#F39C12" fill-opacity="1.000000" fill-rule="nonzero"/>
	<path id="Vector" d="M28.28 15.14C28.28 13.89 29.18 12.88 30.28 12.88C31.38 12.88 32.28 13.89 32.28 15.14C32.28 16.4 31.38 17.41 30.28 17.41C29.18 17.41 28.28 16.4 28.28 15.14Z" fill="#F39C12" fill-opacity="1.000000" fill-rule="nonzero"/>
	<path id="Vector" d="M30.28 23.08C30.28 22.42 30.75 21.88 31.33 21.88C31.92 21.88 32.39 22.42 32.39 23.08C32.39 23.73 31.92 24.27 31.33 24.27C30.75 24.27 30.28 23.75 30.28 23.08Z" fill="#F39C12" fill-opacity="1.000000" fill-rule="nonzero"/>
	<path id="Vector" d="M1.86 18.2C1.86 17.5 2.36 16.91 2.99 16.91C3.62 16.91 4.12 17.48 4.12 18.2C4.12 18.91 3.62 19.48 2.99 19.48C2.36 19.48 1.86 18.91 1.86 18.2Z" fill="#F39C12" fill-opacity="1.000000" fill-rule="nonzero"/>
	<path id="Vector" d="M24.22 18.95C24.22 19.47 23.85 19.89 23.39 19.89C22.93 19.89 22.56 19.47 22.56 18.95C22.56 18.43 22.93 18.01 23.39 18.01C23.85 18.01 24.22 18.43 24.22 18.95Z" fill="#F39C12" fill-opacity="1.000000" fill-rule="evenodd"/>
	<path id="Vector" d="M25.43 14.53C25.43 13.87 25.9 13.33 26.48 13.33C27.07 13.33 27.54 13.86 27.54 14.53C27.54 15.2 27.07 15.73 26.48 15.73C25.9 15.73 25.43 15.19 25.43 14.53Z" fill="#F39C12" fill-opacity="1.000000" fill-rule="nonzero"/>
	<path id="Vector" d="M17.83 22.43C17.83 21.78 18.3 21.23 18.88 21.23C19.47 21.23 19.94 21.76 19.94 22.43C19.94 23.1 19.47 23.63 18.88 23.63C18.3 23.63 17.83 23.09 17.83 22.43Z" fill="#F39C12" fill-opacity="1.000000" fill-rule="nonzero"/>
	<path id="Vector" d="M13.05 28.8C13.05 28.14 13.52 27.6 14.1 27.6C14.69 27.6 15.16 28.12 15.16 28.8C15.16 29.47 14.69 29.99 14.1 29.99C13.52 29.99 13.05 29.45 13.05 28.8Z" fill="#F39C12" fill-opacity="1.000000" fill-rule="nonzero"/>
	<path id="Vector" d="M11.15 16.47C11.15 16.09 11.44 15.77 11.78 15.77C12.12 15.77 12.41 16.09 12.41 16.47C12.41 16.86 12.13 17.17 11.78 17.17C11.42 17.17 11.15 16.86 11.15 16.47Z" fill="#F39C12" fill-opacity="1.000000" fill-rule="nonzero"/>
</svg>
