<svg width="31.000061" height="35.990498" viewBox="0 0 31.0001 35.9905" fill="none" xmlns="http://www.w3.org/2000/svg" xmlns:xlink="http://www.w3.org/1999/xlink">
	<desc>
			Created with Pixso.
	</desc>
	<defs/>
	<path id="Vector" d="M30.96 21.36C30.33 29.69 23.41 35.97 15.49 35.99C7.56 35.99 0.64 29.69 0.03 21.36C-0.59 13.04 6.33 5.75 15.49 5.77C24.66 5.77 31.58 13.06 30.96 21.36Z" fill="#E74C3C" fill-opacity="1.000000" fill-rule="nonzero"/>
	<path id="Vector" d="M19.65 6.3C19.52 6.25 19.4 6.22 19.25 6.17C18.02 5.88 16.75 5.75 15.49 5.75C13.17 5.75 3.29 7.33 6.31 11.44C6.94 12.29 7.93 12.77 8.93 13.11C11.91 14.1 15.29 13.96 18.1 12.47C19.65 11.65 21.76 10.64 23.55 11.37C25.8 12.31 26.17 15.79 26.17 17.89C26.17 24.94 20.18 30.93 13.13 30.93C6.09 30.93 0.4 25.23 0.13 18.39C0 19.35 -0.05 20.33 0.03 21.33C0.66 29.66 7.58 35.94 15.49 35.95C23.43 35.95 30.35 29.66 30.96 21.33C31.49 14.33 26.65 8.08 19.65 6.27L19.65 6.3Z" fill="#C0392B" fill-opacity="1.000000" fill-rule="nonzero"/>
	<path id="Vector" d="M13.01 9.14C13.01 9.14 12.97 9 12.94 8.77C12.89 8.52 12.81 8.21 12.73 7.84C12.62 7.47 12.49 7.04 12.3 6.59C12.11 6.14 11.9 5.69 11.64 5.26C11.13 4.39 10.47 3.65 9.94 3.22C9.67 2.99 9.44 2.85 9.28 2.75C9.12 2.67 9.02 2.62 9.02 2.62L8.98 2.62C8.3 2.24 8.06 1.39 8.41 0.71C8.78 0.04 9.62 -0.2 10.29 0.17C10.36 0.2 10.42 0.25 10.47 0.28C10.47 0.28 10.61 0.39 10.86 0.57C11.08 0.76 11.4 1.05 11.72 1.4C12.38 2.13 13.05 3.2 13.52 4.34C13.76 4.9 13.94 5.48 14.07 6.03C14.19 6.57 14.29 7.09 14.36 7.54C14.4 8 14.44 8.37 14.45 8.6C14.45 8.84 14.47 8.98 14.47 8.98C14.48 9.38 14.18 9.74 13.76 9.75C13.39 9.77 13.07 9.51 13.01 9.16L13.01 9.14Z" fill="#522100" fill-opacity="1.000000" fill-rule="nonzero"/>
	<path id="Vector" d="M18.95 4.45C20.66 3.46 22.67 3.78 24.6 3.81C25.38 3.81 29.04 3.62 29.19 2.38C28.88 5.16 27.65 8.89 24.63 9.61C23.25 9.95 21.8 9.8 20.41 9.66C18.43 9.46 16.46 9.25 14.48 9.06C15.46 7.38 16.81 5.92 18.4 4.79C18.59 4.66 18.77 4.53 18.95 4.44L18.95 4.45Z" fill="#27AE60" fill-opacity="1.000000" fill-rule="nonzero"/>
	<path id="Vector" d="M5.46 14.15C5.46 14.58 5.11 14.94 4.67 14.94C4.24 14.94 3.89 14.58 3.89 14.15C3.89 13.72 4.24 13.36 4.67 13.36C5.11 13.36 5.46 13.72 5.46 14.15Z" fill="#FF8073" fill-opacity="1.000000" fill-rule="nonzero"/>
	<path id="Vector" d="M6.83 17.41C6.83 17.86 6.46 18.23 6.01 18.23C5.56 18.23 5.2 17.86 5.2 17.41C5.2 16.96 5.57 16.61 6.01 16.61C6.44 16.61 6.83 16.98 6.83 17.41Z" fill="#FF8073" fill-opacity="1.000000" fill-rule="nonzero"/>
	<path id="Vector" d="M5.08 17.64C5.08 17.96 4.8 18.23 4.48 18.23C4.16 18.23 3.89 17.96 3.89 17.64C3.89 17.31 4.14 17.04 4.48 17.04C4.82 17.04 5.08 17.31 5.08 17.64Z" fill="#FF8073" fill-opacity="1.000000" fill-rule="nonzero"/>
	<path id="Vector" d="M8.74 20.69C8.74 21.44 8.13 22.05 7.37 22.05C6.62 22.05 6.01 21.44 6.01 20.69C6.01 19.93 6.62 19.32 7.37 19.32C8.13 19.32 8.74 19.93 8.74 20.69Z" fill="#FF8073" fill-opacity="1.000000" fill-rule="nonzero"/>
	<path id="Vector" d="M9.41 18.69C9.41 18.95 9.2 19.16 8.94 19.16C8.69 19.16 8.48 18.95 8.48 18.69C8.48 18.44 8.69 18.23 8.94 18.23C9.2 18.23 9.41 18.44 9.41 18.69Z" fill="#FF8073" fill-opacity="1.000000" fill-rule="nonzero"/>
	<path id="Vector" d="M4.98 20.46C4.98 20.89 4.63 21.25 4.19 21.25C3.76 21.25 3.41 20.89 3.41 20.46C3.41 20.03 3.76 19.67 4.19 19.67C4.63 19.67 4.98 20.03 4.98 20.46Z" fill="#FF8073" fill-opacity="1.000000" fill-rule="nonzero"/>
	<path id="Vector" d="M12.17 20.94C12.17 21.41 11.8 21.78 11.34 21.78C10.87 21.78 10.5 21.41 10.5 20.94C10.5 20.48 10.87 20.11 11.34 20.11C11.8 20.11 12.17 20.48 12.17 20.94Z" fill="#FF8073" fill-opacity="1.000000" fill-rule="nonzero"/>
	<path id="Vector" d="M14.48 19.75C14.48 20.09 14.21 20.36 13.87 20.36C13.54 20.36 13.26 20.09 13.26 19.75C13.26 19.42 13.54 19.14 13.87 19.14C14.21 19.14 14.48 19.42 14.48 19.75Z" fill="#FF8073" fill-opacity="1.000000" fill-rule="evenodd"/>
	<path id="Vector" d="M10.16 23.25C10.16 23.59 9.89 23.86 9.55 23.86C9.22 23.86 8.94 23.59 8.94 23.25C8.94 22.92 9.22 22.64 9.55 22.64C9.89 22.64 10.16 22.92 10.16 23.25Z" fill="#FF8073" fill-opacity="1.000000" fill-rule="nonzero"/>
</svg>
