<svg width="46.000000" height="41.342148" viewBox="0 0 46 41.3421" fill="none" xmlns="http://www.w3.org/2000/svg" xmlns:xlink="http://www.w3.org/1999/xlink">
	<desc>
			Created with Pixso.
	</desc>
	<defs/>
	<path id="Vector" d="M41.07 12.37L4.57 12.37C2.23 19.7 6.65 35.15 6.65 35.15C6.65 38.58 13.89 41.34 22.8 41.34C31.7 41.34 38.94 38.56 38.94 35.15C38.94 35.15 43.36 19.7 41.05 12.37L41.07 12.37Z" fill="#8E44AD" fill-opacity="1.000000" fill-rule="nonzero"/>
	<path id="Vector" d="M31.79 13.99C26.46 13.97 21.16 14.08 15.85 14.31C14.42 14.37 13.01 14.44 11.58 14.52C10.15 14.65 8.61 14.5 7.16 14.5C7.03 14.5 6.88 14.5 6.76 14.54C6.5 14.62 6.34 14.84 6.17 15.02C5.54 15.74 4.78 16.31 3.94 16.75C3.89 17.72 3.94 18.75 3.98 19.78C4.1 19.82 4.23 19.89 4.34 19.97C4.9 20.48 4.57 21.42 4.86 22.12C5.26 23.07 6.57 23.17 7.56 22.92C8.55 22.69 9.64 22.29 10.55 22.75C11.41 23.19 11.75 24.22 12.08 25.13C12.42 26.03 13.01 27.04 13.98 27.13C14.9 27.21 15.68 26.41 16.57 26.14C18.1 25.65 19.66 26.71 20.86 27.76C22.08 28.81 23.45 30.01 25.05 29.82C27.62 29.53 28.84 25.87 31.43 25.7C33.79 25.53 35.87 29.19 38.14 26.9C38.82 26.22 39.15 25.28 39.55 24.39C39.95 23.51 40.5 22.62 41.41 22.27C41.43 22.27 41.47 22.27 41.51 22.24C41.81 19.45 41.89 16.62 41.51 14.29C41.01 14.18 40.5 14.1 39.97 14.08C37.24 14.01 34.52 13.97 31.79 13.97L31.79 13.99Z" fill="#64307A" fill-opacity="1.000000" fill-rule="nonzero"/>
	<path id="Vector" d="M44.58 16.5C45.07 16.56 45.53 17.02 45.87 16.29C46.02 15.99 45.99 15.64 45.99 15.32C45.97 14.52 45.95 13.72 45.91 12.92C43.15 13.53 41.09 11.87 38.42 11.83C35.68 11.76 32.96 11.72 30.23 11.72C24.9 11.7 19.6 11.8 14.29 12.04C12.86 12.1 11.45 12.16 10.02 12.25C8.59 12.37 7.05 12.23 5.6 12.23C5.47 12.23 5.33 12.23 5.2 12.27C4.95 12.35 4.78 12.56 4.61 12.75C3.43 14.08 1.79 15 0.04 15.32C-0.06 16.06 -0.04 16.94 0.65 17.3C1.3 17.66 2.21 17.17 2.8 17.7C3.37 18.2 3.03 19.15 3.33 19.85C3.73 20.79 5.03 20.9 6.02 20.65C7.01 20.41 8.1 20.01 9.01 20.48C9.87 20.92 10.21 21.95 10.55 22.86C10.88 23.76 11.47 24.77 12.44 24.86C13.37 24.96 14.15 24.16 15.03 23.87C16.57 23.38 18.12 24.43 19.32 25.49C20.52 26.54 21.91 27.74 23.51 27.55C26.08 27.25 27.3 23.59 29.89 23.42C32.25 23.26 34.33 26.92 36.61 24.62C37.28 23.95 37.62 23 38.02 22.12C38.42 21.23 38.96 20.35 39.87 19.99C41.19 19.45 43.22 20.16 43.7 18.37C43.85 17.8 43.53 16.86 44.31 16.54C44.42 16.5 44.52 16.5 44.6 16.5L44.58 16.5Z" fill="#F1DF98" fill-opacity="1.000000" fill-rule="nonzero"/>
	<path id="Vector" d="M0.46 17.15C0.57 17.05 0.69 16.96 0.86 16.92C3.01 16.16 4.67 14.33 6.53 13.05C6.88 12.79 7.24 12.52 7.62 12.25C6.95 12.23 6.27 12.2 5.62 12.2C5.49 12.2 5.35 12.2 5.22 12.25C4.97 12.33 4.8 12.54 4.63 12.73C3.45 14.06 1.81 14.98 0.06 15.3C-0.04 15.97 -0.02 16.73 0.48 17.15L0.46 17.15Z" fill="#D1AB6D" fill-opacity="1.000000" fill-rule="nonzero"/>
	<path id="Vector" d="M8.15 16.71C8.95 15.7 9.87 14.81 10.71 13.87C11.11 13.26 11.56 12.69 12.02 12.12C11.56 12.14 11.07 12.16 10.61 12.18C10.63 12.65 10.44 13.13 9.89 13.32C10.25 13.19 9.47 13.64 9.41 13.68C9.14 13.87 8.86 14.04 8.59 14.22C8 14.62 7.41 15 6.86 15.42C5.6 16.35 4.44 17.4 3.09 18.18C3.22 18.69 3.09 19.32 3.33 19.8C3.6 20.46 4.29 20.69 5.01 20.71C6.17 19.47 7.09 18.01 8.15 16.67L8.15 16.71Z" fill="#D1AB6D" fill-opacity="1.000000" fill-rule="nonzero"/>
	<path id="Vector" d="M11.7 24.58C12.67 20.03 13.96 15.57 17.01 11.91C16.1 11.95 15.2 11.95 14.31 11.99C14.1 11.99 13.89 11.99 13.68 12.01C13.98 12.35 14.1 12.81 13.85 13.26C13.43 13.97 12.9 14.6 12.38 15.21C11.2 16.94 10.27 18.83 9.28 20.69C9.91 21.19 10.23 22.06 10.52 22.86C10.78 23.51 11.14 24.2 11.68 24.58L11.7 24.58Z" fill="#D1AB6D" fill-opacity="1.000000" fill-rule="nonzero"/>
	<path id="Vector" d="M38.06 13.93C37.36 13.82 37.17 13.24 37.32 12.71C37.13 12.71 36.96 12.67 36.77 12.67C36.16 12.67 35.85 12.23 35.76 11.74C33.93 11.72 32.08 11.68 30.25 11.66C26.4 11.66 22.54 11.72 18.71 11.85C18.94 12.1 19.07 12.46 18.92 12.81C18.27 14.48 17.68 16.16 17.09 17.85C16.99 19.85 16.67 21.8 16.27 23.76C17.37 23.93 18.44 24.69 19.3 25.47C19.98 26.05 20.73 26.69 21.53 27.11C20.94 23.8 20.99 20.43 20.48 17.09C20.38 16.31 20.99 15.8 21.6 15.74C21.66 14.96 22.31 14.69 22.9 14.86C23.41 14.27 24.52 14.22 24.75 15.21C25.53 18.5 28.02 20.81 30.02 23.42C31.62 23.42 33.11 25.09 34.63 25.34C34.06 24.67 33.53 23.95 33.07 23.19C31.68 20.98 29.91 19.02 28.96 16.56C28.65 15.72 29.39 15.21 30.08 15.28C30.08 15.24 30.04 15.21 30.02 15.17C29.39 13.95 31.17 12.88 31.85 14.04C32.14 13.95 32.46 13.95 32.71 14.12C33.34 14.56 33.83 15.13 34.27 15.78C34.16 15.11 34.71 14.27 35.6 14.46C35.64 14.46 35.66 14.46 35.68 14.48C35.81 13.95 36.29 13.49 36.98 13.68C39.01 14.2 40.75 15.49 42.75 16.12C43.24 16.27 43.68 16.44 44.12 16.62C44.16 16.58 44.23 16.56 44.29 16.52C44.39 16.48 44.5 16.48 44.58 16.48C45.07 16.54 45.53 17 45.87 16.27C46.02 15.97 45.99 15.61 45.99 15.3C45.99 15.15 45.99 15 45.99 14.86C43.32 14.96 40.77 14.35 38.08 13.93L38.06 13.93Z" fill="#D1AB6D" fill-opacity="1.000000" fill-rule="nonzero"/>
	<path id="Vector" d="M39.81 18.94C38.18 18.31 36.69 16.88 35.03 16.54C34.88 16.52 34.77 16.46 34.67 16.39C34.77 16.58 34.88 16.75 35.01 16.94C36.37 18.12 37.76 19.3 39.19 20.41C39.41 20.25 39.62 20.08 39.87 19.97C40.52 19.7 41.34 19.74 42.06 19.63C41.3 19.45 40.54 19.23 39.81 18.94Z" fill="#D1AB6D" fill-opacity="1.000000" fill-rule="nonzero"/>
	<path id="Vector" d="M34.48 6.98C31.32 5.97 27.26 5.36 22.82 5.36C18.38 5.36 14.31 5.97 11.16 6.98L4.57 6.98L4.57 12.37C4.57 16.25 12.74 19.38 22.82 19.38C32.9 19.38 41.07 16.25 41.07 12.37L41.07 6.98L34.48 6.98Z" fill="#F39C12" fill-opacity="1.000000" fill-rule="nonzero"/>
	<path id="Vector" d="M41.07 6.98C41.07 10.86 32.9 13.99 22.82 13.99C12.74 13.99 4.57 10.86 4.57 6.98C4.57 3.11 12.74 0 22.82 0C32.9 0 41.07 3.13 41.07 6.98Z" fill="#F1C40F" fill-opacity="1.000000" fill-rule="nonzero"/>
	<path id="Vector" d="M31.01 10.18C33.07 8.84 35.11 7.51 37.07 6.23C37.97 5.64 38.9 5.07 39.83 4.48C39.7 4.37 39.59 4.25 39.45 4.14C38.35 4.88 37.26 5.64 36.16 6.39C34.42 7.64 32.69 8.9 30.99 10.18L31.01 10.18Z" fill="#FFDE59" fill-opacity="1.000000" fill-rule="nonzero"/>
	<path id="Vector" d="M13.37 12.98C14.52 11.97 15.72 11 16.92 10.08C20.57 6.67 24.52 3.36 28.67 0.39C26.84 0.16 24.86 0.02 22.82 0.02C12.74 0.02 4.57 3.15 4.57 7C4.57 9.55 8.1 11.76 13.37 12.98Z" fill="#FFDE59" fill-opacity="1.000000" fill-rule="nonzero"/>
	<path id="Vector" d="M36.67 3.41C36.94 3.22 37.22 3.03 37.49 2.84C37.15 2.67 36.82 2.5 36.46 2.35C33.91 4.46 31.43 6.6 29.03 8.67C28.25 9.36 27.47 10.06 26.71 10.75C29.95 8.2 33.28 5.74 36.67 3.38L36.67 3.41Z" fill="#FFDE59" fill-opacity="1.000000" fill-rule="nonzero"/>
	<path id="Vector" d="M20.14 13.91C22.65 11.51 25.22 9.17 27.83 6.9C24.71 9.07 21.77 11.43 18.84 13.82C19.26 13.87 19.7 13.89 20.14 13.91Z" fill="#FFDE59" fill-opacity="1.000000" fill-rule="nonzero"/>
	<path id="Vector" d="M37.81 10.27C37.38 10.52 36.98 10.79 36.56 11.05C35.87 11.49 35.2 11.93 34.5 12.37C34.65 12.33 34.8 12.27 34.94 12.23C34.96 12.23 34.98 12.2 35.01 12.18C35.93 11.55 36.86 10.92 37.78 10.29L37.81 10.27Z" fill="#FFDE59" fill-opacity="1.000000" fill-rule="nonzero"/>
	<path id="Vector" d="M10.61 27.91C10.61 28.48 10.15 28.96 9.56 28.96C8.97 28.96 8.5 28.5 8.5 27.91C8.5 27.32 8.97 26.85 9.56 26.85C10.15 26.85 10.61 27.32 10.61 27.91Z" fill="#64307A" fill-opacity="1.000000" fill-rule="nonzero"/>
	<path id="Vector" d="M14.12 31.72C14.12 32.18 13.75 32.54 13.3 32.54C12.86 32.54 12.48 32.16 12.48 31.72C12.48 31.28 12.86 30.9 13.3 30.9C13.75 30.9 14.12 31.28 14.12 31.72Z" fill="#64307A" fill-opacity="1.000000" fill-rule="nonzero"/>
	<path id="Vector" d="M15.13 30.39C15.13 30.66 14.9 30.9 14.63 30.9C14.36 30.9 14.12 30.66 14.12 30.39C14.12 30.12 14.36 29.89 14.63 29.89C14.9 29.89 15.13 30.12 15.13 30.39Z" fill="#64307A" fill-opacity="1.000000" fill-rule="nonzero"/>
	<path id="Vector" d="M12.27 35.09C12.27 35.91 11.6 36.58 10.78 36.58C9.96 36.58 9.28 35.91 9.28 35.09C9.28 34.26 9.96 33.59 10.78 33.59C11.6 33.59 12.27 34.26 12.27 35.09Z" fill="#64307A" fill-opacity="1.000000" fill-rule="nonzero"/>
	<path id="Vector" d="M14.63 35.17C14.63 35.44 14.42 35.65 14.15 35.65C13.87 35.65 13.66 35.44 13.66 35.17C13.66 34.9 13.87 34.69 14.15 34.69C14.42 34.69 14.63 34.9 14.63 35.17Z" fill="#64307A" fill-opacity="1.000000" fill-rule="nonzero"/>
	<path id="Vector" d="M22.82 35.4C22.82 36.14 22.21 36.75 21.47 36.75C20.73 36.75 20.12 36.14 20.12 35.4C20.12 34.66 20.73 34.05 21.47 34.05C22.21 34.05 22.82 34.66 22.82 35.4Z" fill="#64307A" fill-opacity="1.000000" fill-rule="nonzero"/>
	<path id="Vector" d="M23.39 32.83C23.39 32.98 23.26 33.11 23.11 33.11C22.97 33.11 22.84 32.98 22.84 32.83C22.84 32.69 22.97 32.56 23.11 32.56C23.26 32.56 23.39 32.69 23.39 32.83Z" fill="#64307A" fill-opacity="1.000000" fill-rule="nonzero"/>
	<path id="Vector" d="M32 35.53C32 36.33 31.34 36.98 30.54 36.98C29.74 36.98 29.09 36.33 29.09 35.53C29.09 34.73 29.74 34.05 30.54 34.05C31.34 34.05 32 34.71 32 35.53Z" fill="#64307A" fill-opacity="1.000000" fill-rule="nonzero"/>
	<path id="Vector" d="M32.23 33.38C32.23 33.67 31.97 33.93 31.68 33.93C31.39 33.93 31.13 33.67 31.13 33.38C31.13 33.09 31.39 32.83 31.68 32.83C31.97 32.83 32.23 33.09 32.23 33.38Z" fill="#64307A" fill-opacity="1.000000" fill-rule="nonzero"/>
	<path id="Vector" d="M33.17 30.26C33.17 31 32.59 31.59 31.85 31.59C31.11 31.59 30.52 31 30.52 30.26C30.52 29.53 31.11 28.94 31.85 28.94C32.59 28.94 33.17 29.53 33.17 30.26Z" fill="#64307A" fill-opacity="1.000000" fill-rule="nonzero"/>
	<path id="Vector" d="M38.23 31.72C38.23 32.18 37.85 32.54 37.41 32.54C36.96 32.54 36.58 32.16 36.58 31.72C36.58 31.28 36.96 30.9 37.41 30.9C37.85 30.9 38.23 31.28 38.23 31.72Z" fill="#64307A" fill-opacity="1.000000" fill-rule="nonzero"/>
	<path id="Vector" d="M37.41 34.47C37.41 34.71 37.22 34.9 36.98 34.9C36.75 34.9 36.56 34.71 36.56 34.47C36.56 34.24 36.75 34.05 36.98 34.05C37.22 34.05 37.41 34.24 37.41 34.47Z" fill="#64307A" fill-opacity="1.000000" fill-rule="nonzero"/>
	<path id="Vector" d="M28.27 31.02C28.27 31.38 28 31.65 27.64 31.65C27.28 31.65 27.01 31.38 27.01 31.02C27.01 30.66 27.28 30.39 27.64 30.39C28 30.39 28.27 30.66 28.27 31.02Z" fill="#64307A" fill-opacity="1.000000" fill-rule="nonzero"/>
	<path id="Vector" d="M26.14 34.64C26.14 34.98 25.87 35.23 25.55 35.23C25.24 35.23 24.97 34.96 24.97 34.64C24.97 34.33 25.24 34.05 25.55 34.05C25.87 34.05 26.14 34.33 26.14 34.64Z" fill="#9B59B6" fill-opacity="1.000000" fill-rule="nonzero"/>
	<path id="Vector" d="M19.58 31.21C19.58 31.68 19.2 32.03 18.76 32.03C18.31 32.03 17.93 31.65 17.93 31.21C17.93 30.77 18.31 30.39 18.76 30.39C19.2 30.39 19.58 30.77 19.58 31.21Z" fill="#9B59B6" fill-opacity="1.000000" fill-rule="nonzero"/>
	<path id="Vector" d="M17.93 34.94C17.93 35.19 17.72 35.4 17.47 35.4C17.22 35.4 17.01 35.19 17.01 34.94C17.01 34.69 17.22 34.47 17.47 34.47C17.72 34.47 17.93 34.69 17.93 34.94Z" fill="#9B59B6" fill-opacity="1.000000" fill-rule="nonzero"/>
	<path id="Vector" d="M24.97 38.6C24.97 39.19 24.48 39.67 23.89 39.67C23.3 39.67 22.82 39.19 22.82 38.6C22.82 38.01 23.3 37.53 23.89 37.53C24.48 37.53 24.97 38.01 24.97 38.6Z" fill="#9B59B6" fill-opacity="1.000000" fill-rule="nonzero"/>
	<path id="Vector" d="M27.93 36.12C27.93 36.37 27.72 36.58 27.47 36.58C27.22 36.58 27.01 36.37 27.01 36.12C27.01 35.86 27.22 35.65 27.47 35.65C27.72 35.65 27.93 35.86 27.93 36.12Z" fill="#9B59B6" fill-opacity="1.000000" fill-rule="nonzero"/>
	<path id="Vector" d="M35.62 33.34C35.62 33.78 35.26 34.14 34.82 34.14C34.37 34.14 34.02 33.78 34.02 33.34C34.02 32.9 34.37 32.54 34.82 32.54C35.26 32.54 35.62 32.9 35.62 33.34Z" fill="#9B59B6" fill-opacity="1.000000" fill-rule="nonzero"/>
	<path id="Vector" d="M17.93 28.73C17.93 29.19 17.56 29.55 17.11 29.55C16.67 29.55 16.29 29.19 16.29 28.73C16.29 28.27 16.67 27.91 17.11 27.91C17.56 27.91 17.93 28.27 17.93 28.73Z" fill="#9B59B6" fill-opacity="1.000000" fill-rule="nonzero"/>
	<path id="Vector" d="M10.02 32.43C10.02 33.11 9.47 33.65 8.82 33.65C8.17 33.65 7.62 33.11 7.62 32.43C7.62 31.76 8.17 31.23 8.82 31.23C9.47 31.23 10.02 31.78 10.02 32.43Z" fill="#9B59B6" fill-opacity="1.000000" fill-rule="nonzero"/>
	<path id="Vector" d="M7.89 25.72C7.89 26.14 7.56 26.48 7.14 26.48C6.71 26.48 6.38 26.14 6.38 25.72C6.38 25.3 6.71 24.96 7.14 24.96C7.56 24.96 7.89 25.3 7.89 25.72Z" fill="#9B59B6" fill-opacity="1.000000" fill-rule="nonzero"/>
	<path id="Vector" d="M15.87 37.59C15.87 37.93 15.6 38.2 15.26 38.2C14.92 38.2 14.65 37.93 14.65 37.59C14.65 37.25 14.92 36.98 15.26 36.98C15.6 36.98 15.87 37.25 15.87 37.59Z" fill="#9B59B6" fill-opacity="1.000000" fill-rule="nonzero"/>
</svg>
