<svg width="76.171082" height="46.980003" viewBox="0 0 76.1711 46.98" fill="none" xmlns="http://www.w3.org/2000/svg" xmlns:xlink="http://www.w3.org/1999/xlink">
	<desc>
			Created with Pixso.
	</desc>
	<defs/>
	<path id="Vector" d="M0 32.3C5.25 33.2 26.89 42.23 31.52 46.98C35.89 38.94 42.04 42.35 55.52 33.18C69 24.01 70.13 16.14 76.17 12.69C69.94 12.61 47.46 4.42 42.14 0C40.06 7.17 28.05 8.16 21.31 13.49C14.57 18.82 6.64 29.77 0 32.28L0 32.3Z" fill="#ECF0F1" fill-opacity="1.000000" fill-rule="nonzero"/>
	<path id="Vector" d="M2.62 30.99C7.87 31.89 27.97 40.39 32.59 45.13C37.16 40.51 42.04 42.35 55.52 33.2C69 24.03 69.74 17.33 74.58 13.83C68.35 13.75 45.8 7.52 40.47 3.09C37.57 6.11 28.07 8.18 21.33 13.51C14.59 18.84 6.62 28.68 2.62 30.99Z" fill="#C0392B" fill-opacity="1.000000" fill-rule="nonzero"/>
	<path id="Vector" d="M60.24 11.26C53.73 12.42 47.29 13.85 40.88 15.49C28.99 18.53 17.06 21.8 6.38 27.93C4.93 29.3 3.64 30.4 2.6 30.99C3.95 31.22 6.28 31.95 9.07 33.01C20.57 26.4 33.32 22.35 46.09 18.76C53.68 16.65 61.32 14.98 69.02 13.43C69.29 13.38 69.56 13.32 69.84 13.26C67.25 12.79 64.12 12.04 60.83 11.16C60.63 11.2 60.41 11.24 60.22 11.28L60.24 11.26Z" fill="#F39C12" fill-opacity="1.000000" fill-rule="nonzero"/>
	<path id="Vector" d="M61.79 17.88C60.08 18.74 58.59 19.49 56.79 20.12C53.24 21.35 52.56 22.62 50.21 25.37C47.48 28.54 44.19 30.69 41.12 33.5C37.53 36.77 34.75 40.67 32.14 44.72C32.3 44.86 32.46 45 32.58 45.13C37.14 40.51 42.02 42.35 55.5 33.2C68.84 24.13 69.7 17.47 74.4 13.94C70.25 15.57 65.82 15.84 61.77 17.88L61.79 17.88Z" fill="#9E2F23" fill-opacity="1.000000" fill-rule="nonzero"/>
	<path id="Vector" d="M48.41 19.33C48.41 23.7 42.8 27.25 35.89 27.25C28.97 27.25 23.37 23.7 23.37 19.33C23.37 14.96 28.97 11.42 35.89 11.42C42.8 11.42 48.41 14.96 48.41 19.33Z" fill="#F1C40F" fill-opacity="1.000000" fill-rule="nonzero"/>
</svg>
