<svg width="53.557098" height="53.345360" viewBox="0 0 53.5571 53.3454" fill="none" xmlns="http://www.w3.org/2000/svg" xmlns:xlink="http://www.w3.org/1999/xlink">
	<desc>
			Created with Pixso.
	</desc>
	<defs/>
	<path id="Vector" d="M19.31 50.43C17.69 50.27 16.07 49.91 14.54 49.39C4.41 45.87 -0.36 35.11 2.92 23.22C6.45 10.48 19.02 1.44 31.57 2.64C41.64 3.64 49.78 10.45 51.41 19.2C52.48 24.82 50.73 30.72 46.84 34.57C44.88 36.52 42.57 37.77 40.53 38.85C39.07 39.64 37.7 40.37 36.65 41.25C35.81 41.93 35.09 42.85 34.32 43.82C32.75 45.83 30.77 48.31 27.17 49.57C24.77 50.4 22.04 50.7 19.29 50.43L19.31 50.43Z" fill="#E3976E" fill-opacity="1.000000" fill-rule="nonzero"/>
	<path id="Vector" d="M19.47 48.81C18.02 48.67 16.62 48.35 15.26 47.88C4.92 44.3 2.79 33.33 5.18 24.66C8.34 13.23 20.03 4.79 31.26 5.86C38.63 6.59 47.25 11.46 48.93 20.43C49.83 25.27 48.35 30.33 45.04 33.63C43.34 35.33 41.28 36.43 39.3 37.49C37.74 38.32 36.27 39.12 35 40.16C33.97 41 33.18 42.03 32.33 43.09C30.8 45.02 29.22 47.04 26.3 48.05C24.24 48.77 21.87 49.03 19.45 48.79L19.47 48.81Z" fill="#ECF0F1" fill-opacity="1.000000" fill-rule="nonzero"/>
	<path id="Vector" d="M6.84 24.29C9.69 13.98 20.28 5.64 31.18 6.68C38.61 7.4 45.97 12.28 47.4 19.93C48.18 24.04 46.97 28.67 43.96 31.67C41.14 34.48 37.07 35.56 34.02 38.09C30.95 40.65 29.8 44.32 25.82 45.7C22.66 46.8 18.98 46.6 15.85 45.52C6.78 42.38 4.46 32.83 6.82 24.27L6.84 24.29Z" fill="#C0392B" fill-opacity="1.000000" fill-rule="nonzero"/>
	<path id="Vector" d="M27.15 16.51C25.28 16.93 24.25 18.96 23.75 20.82C23.27 22.69 23.01 24.75 21.69 26.16C20.6 27.33 19 27.84 17.58 28.61C16.17 29.35 14.8 30.64 14.86 32.24C18.51 30.73 23.05 31.65 25.83 34.49C26.49 35.16 27.08 35.95 27.88 36.48C29.58 37.59 32.08 36.42 30.62 34.47C29.28 32.7 27.84 31.43 26.95 29.3C25.26 25.27 25.2 20.47 27.13 16.51L27.15 16.51Z" fill="#ECF0F1" fill-opacity="1.000000" fill-rule="nonzero"/>
	<path id="Vector" d="M38.47 12.27C42.85 12.96 46.42 17.13 46.41 21.58C46.4 25.31 44.21 28.68 41.77 31.49C40.1 33.39 38.02 35.28 35.5 35.32C32.71 35.38 30.37 33.14 29.04 30.68C25.1 23.48 28.07 10.61 38.47 12.27Z" fill="#E74C3C" fill-opacity="1.000000" fill-rule="nonzero"/>
	<path id="Vector" d="M28.89 12.11C29.58 11.84 30.29 11.62 30.89 11.18C31.48 10.75 31.93 10.01 31.77 9.28C31.48 7.99 29.7 7.82 28.4 8.04C23.29 8.94 18.47 11.43 14.83 15.13C11.2 18.83 8.73 23.67 7.91 28.79C7.79 29.61 7.69 30.45 7.92 31.26C8.16 32.07 8.76 32.78 9.57 32.94C10.96 33.19 12.02 31.8 12.9 30.69C14.35 28.82 16.27 27.31 18.4 26.32C20.77 25.22 21.66 25.38 21.8 22.62C22.03 18.13 24.62 13.83 28.88 12.13L28.89 12.11Z" fill="#E74C3C" fill-opacity="1.000000" fill-rule="nonzero"/>
	<path id="Vector" d="M20.18 32.67C23.66 33.31 26.8 35.64 28.4 38.8C28.92 39.83 29.28 41.03 28.9 42.12C28.38 43.56 26.74 44.23 25.25 44.55C20.82 45.52 16.07 44.75 12.15 42.51C10.9 41.8 9.69 40.87 9.13 39.55C6.78 34.2 16.83 32.04 20.21 32.67L20.18 32.67Z" fill="#E74C3C" fill-opacity="1.000000" fill-rule="nonzero"/>
	<path id="Vector" d="M34.12 31.52C34.09 31.79 33.84 32.01 33.56 31.98C33.29 31.95 33.08 31.69 33.11 31.42C33.13 31.15 33.39 30.94 33.66 30.96C33.94 30.99 34.15 31.25 34.12 31.52Z" fill="#C0392B" fill-opacity="1.000000" fill-rule="nonzero"/>
	<path id="Vector" d="M37.77 30.23C37.71 30.85 37.16 31.31 36.53 31.25C35.91 31.19 35.45 30.63 35.51 30C35.57 29.38 36.13 28.92 36.75 28.98C37.38 29.05 37.84 29.6 37.77 30.23Z" fill="#C0392B" fill-opacity="1.000000" fill-rule="nonzero"/>
	<path id="Vector" d="M39.88 29.71C39.85 29.92 39.66 30.1 39.43 30.08C39.19 30.05 39.03 29.86 39.06 29.62C39.08 29.39 39.27 29.23 39.51 29.26C39.74 29.28 39.9 29.47 39.88 29.71Z" fill="#C0392B" fill-opacity="1.000000" fill-rule="nonzero"/>
	<path id="Vector" d="M33.99 27.65C33.93 28.23 33.42 28.65 32.83 28.6C32.25 28.54 31.83 28.02 31.88 27.44C31.94 26.85 32.46 26.43 33.04 26.49C33.63 26.55 34.05 27.06 33.99 27.65Z" fill="#C0392B" fill-opacity="1.000000" fill-rule="nonzero"/>
	<path id="Vector" d="M17.51 23.93C17.48 24.28 17.16 24.55 16.78 24.51C16.41 24.47 16.15 24.15 16.18 23.8C16.22 23.45 16.54 23.16 16.91 23.2C17.28 23.24 17.55 23.56 17.51 23.93Z" fill="#C0392B" fill-opacity="1.000000" fill-rule="nonzero"/>
	<path id="Vector" d="M18.49 21.6C18.47 21.8 18.3 21.96 18.08 21.94C17.87 21.92 17.73 21.74 17.75 21.53C17.77 21.32 17.94 21.17 18.16 21.2C18.37 21.22 18.51 21.39 18.49 21.6Z" fill="#C0392B" fill-opacity="1.000000" fill-rule="nonzero"/>
	<path id="Vector" d="M20.49 23.46C20.45 23.89 20.07 24.18 19.66 24.14C19.25 24.1 18.93 23.72 18.97 23.31C19.01 22.9 19.4 22.58 19.81 22.62C20.22 22.66 20.53 23.05 20.49 23.46Z" fill="#C0392B" fill-opacity="1.000000" fill-rule="nonzero"/>
	<path id="Vector" d="M14.01 37.61C13.98 37.93 13.7 38.15 13.39 38.12C13.08 38.09 12.85 37.81 12.88 37.5C12.91 37.19 13.19 36.96 13.5 36.99C13.81 37.02 14.04 37.3 14.01 37.61Z" fill="#C0392B" fill-opacity="1.000000" fill-rule="nonzero"/>
	<path id="Vector" d="M16.85 35.84C16.78 36.49 16.2 36.96 15.56 36.9C14.92 36.84 14.44 36.26 14.51 35.61C14.57 34.97 15.15 34.49 15.79 34.56C16.44 34.62 16.91 35.2 16.85 35.84Z" fill="#C0392B" fill-opacity="1.000000" fill-rule="nonzero"/>
	<path id="Vector" d="M18.46 36.24C18.44 36.45 18.25 36.61 18.03 36.59C17.82 36.57 17.66 36.38 17.68 36.16C17.7 35.95 17.9 35.79 18.11 35.81C18.33 35.83 18.48 36.03 18.46 36.24Z" fill="#C0392B" fill-opacity="1.000000" fill-rule="nonzero"/>
	<path id="Vector" d="M36.14 16.25C36.1 16.68 35.71 16.98 35.3 16.94C34.89 16.9 34.58 16.51 34.62 16.1C34.66 15.69 35.05 15.38 35.45 15.42C35.86 15.46 36.18 15.84 36.14 16.25Z" fill="#C0392B" fill-opacity="1.000000" fill-rule="nonzero"/>
	<path id="Vector" d="M44.02 21.21C43.99 21.52 43.72 21.73 43.42 21.7C43.13 21.67 42.9 21.41 42.93 21.1C42.96 20.79 43.22 20.58 43.53 20.61C43.84 20.64 44.06 20.9 44.02 21.21Z" fill="#C0392B" fill-opacity="1.000000" fill-rule="nonzero"/>
</svg>
