<svg width="65.550415" height="62.287300" viewBox="0 0 65.5504 62.2873" fill="none" xmlns="http://www.w3.org/2000/svg" xmlns:xlink="http://www.w3.org/1999/xlink">
	<desc>
			Created with Pixso.
	</desc>
	<defs/>
	<path id="Vector" d="M4.47 49.33C2.65 48.85 1.47 46.41 1.26 44.38C1.17 43.42 1.49 42.15 2.4 41.64C3.55 41.01 4.92 40.82 6.37 40.65C7.38 40.53 8.41 40.39 9.42 40.1C12.45 39.23 13.81 37.06 15.24 34.79C16.87 32.21 17.97 29.33 19.02 26.56C20.42 22.87 21.74 19.39 24.18 16.63C31.16 8.7 42.7 9.9 53.07 12.13C54.3 12.39 55.37 12.61 56.38 12.89C60.45 13.98 62.72 15.52 62.29 20.17C61.74 26.24 58.97 32.7 54.45 38.32C52.56 40.65 50.44 42.76 48.09 44.56C47.93 44.68 47.76 44.83 47.57 44.98C47.01 45.43 46.32 46 45.88 45.95C45.21 45.77 43.94 44.54 43.18 43.82C42.73 43.39 42.32 43 42 42.74C41.18 42.09 40.33 41.4 39.84 40.54C39.51 39.93 39.32 39.01 39.76 38.44L38.23 36.79C34.54 39.16 30.48 39.32 26.16 39.5C25.33 39.54 24.5 39.57 23.67 39.61C20.06 39.81 14.85 40.5 11.39 44.03C10.76 44.69 10.2 45.4 9.67 46.1C8.57 47.52 7.54 48.84 6.11 49.28C5.52 49.46 4.95 49.46 4.45 49.33L4.47 49.33Z" fill="#EAEFF0" fill-opacity="1.000000" fill-rule="nonzero"/>
	<path id="Vector" d="M17.39 38.31C17.43 38.17 17.43 37.99 17.45 37.85C16.96 38.15 16.34 38.18 15.82 38.04C14.22 39.32 12.28 40.27 10.82 41.74C9.63 42.93 8.84 44.43 7.48 45.47C4.63 47.69 1.46 45.62 2.56 42.11C2.65 41.77 2.84 41.54 3.05 41.33C2.83 41.43 2.59 41.51 2.38 41.63C1.47 42.14 1.15 43.4 1.24 44.37C1.42 46.42 2.63 48.84 4.45 49.33C4.95 49.46 5.52 49.44 6.11 49.28C7.54 48.84 8.57 47.52 9.67 46.1C10.2 45.4 10.76 44.69 11.39 44.03C13.37 42.01 15.92 40.94 18.4 40.33C17.74 39.98 17.22 39.26 17.37 38.3L17.39 38.31Z" fill="#BDC3C7" fill-opacity="1.000000" fill-rule="nonzero"/>
	<path id="Vector" d="M63.44 20.24C64.07 13.25 58.96 12.2 53.34 10.99C43.35 8.84 30.92 7.25 23.34 15.86C18.83 20.99 17.94 28.39 14.3 34.19C13.36 35.67 12.53 36.98 11.31 37.91C12.04 39.7 13.97 41.22 15.75 42.48C18.21 41.37 21.04 40.91 23.79 40.77C29.2 40.45 34.24 40.76 38.9 37.77C38.19 38.71 38.32 40.09 38.91 41.11C39.48 42.13 40.42 42.9 41.35 43.63C42.38 44.47 44.44 46.86 45.75 47.06C46.89 47.24 47.95 46.14 48.83 45.45C51.26 43.57 53.44 41.41 55.36 39.02C59.59 33.75 62.87 27.06 63.46 20.27L63.44 20.24Z" fill="#F1BC91" fill-opacity="1.000000" fill-rule="nonzero"/>
	<path id="Vector" d="M63.44 20.24C63.55 19.12 63.49 18.15 63.3 17.32C63.24 20.04 62.3 22.71 61.24 25.47C59.94 28.83 58.35 33.22 55.18 35.27C51.36 37.73 47.61 34.77 47.41 30.93C45 31.36 42.56 30.92 40.55 29.45C39.61 28.77 36.41 25.7 37.35 24.54C34.71 27.75 32.57 31.12 28.97 33.39C24.35 36.33 18.76 38.53 13.49 39.94C13.21 40.02 12.94 40.03 12.72 39.99C13.58 40.9 14.65 41.73 15.69 42.46C18.15 41.35 20.98 40.9 23.73 40.75C29.14 40.43 34.18 40.75 38.84 37.76C38.13 38.69 38.26 40.07 38.85 41.09C39.42 42.11 40.36 42.89 41.29 43.61C42.32 44.45 44.38 46.85 45.69 47.05C46.83 47.23 47.89 46.12 48.77 45.43C51.2 43.55 53.38 41.39 55.3 39C59.53 33.74 62.81 27.04 63.4 20.25L63.44 20.24Z" fill="#E3976E" fill-opacity="1.000000" fill-rule="nonzero"/>
	<path id="Vector" d="M22.26 34.36C22.14 34.82 21.68 35.09 21.21 34.96C20.75 34.84 20.48 34.38 20.61 33.91C20.73 33.45 21.19 33.18 21.66 33.31C22.12 33.43 22.39 33.9 22.26 34.36Z" fill="#FFCEA6" fill-opacity="1.000000" fill-rule="nonzero"/>
	<path id="Vector" d="M25.44 33.35C25.38 33.55 25.17 33.69 24.95 33.63C24.73 33.57 24.61 33.37 24.67 33.14C24.73 32.92 24.93 32.8 25.16 32.86C25.38 32.92 25.5 33.13 25.44 33.35Z" fill="#FFCEA6" fill-opacity="1.000000" fill-rule="nonzero"/>
	<path id="Vector" d="M24.78 30.71C24.67 31.11 24.27 31.33 23.89 31.22C23.5 31.12 23.27 30.71 23.37 30.33C23.47 29.94 23.89 29.69 24.27 29.79C24.66 29.89 24.89 30.3 24.78 30.71Z" fill="#FFCEA6" fill-opacity="1.000000" fill-rule="nonzero"/>
	<path id="Vector" d="M27.57 29.68C27.52 29.88 27.3 30.02 27.08 29.96C26.86 29.9 26.74 29.7 26.8 29.48C26.86 29.25 27.07 29.14 27.29 29.2C27.51 29.26 27.63 29.46 27.57 29.68Z" fill="#FFCEA6" fill-opacity="1.000000" fill-rule="nonzero"/>
	<path id="Vector" d="M30.42 29.37C30.33 29.71 29.97 29.92 29.63 29.83C29.29 29.73 29.08 29.37 29.17 29.03C29.27 28.69 29.62 28.48 29.97 28.57C30.31 28.67 30.52 29.03 30.42 29.37Z" fill="#FFCEA6" fill-opacity="1.000000" fill-rule="nonzero"/>
	<path id="Vector" d="M30.08 25.75C30.04 25.89 29.89 25.98 29.75 25.94C29.6 25.9 29.52 25.75 29.55 25.61C29.59 25.46 29.75 25.38 29.89 25.41C30.03 25.45 30.12 25.61 30.08 25.75Z" fill="#FFCEA6" fill-opacity="1.000000" fill-rule="nonzero"/>
	<path id="Vector" d="M28.91 23.18C28.86 23.36 28.65 23.48 28.47 23.43C28.29 23.38 28.17 23.18 28.22 23C28.27 22.81 28.48 22.7 28.66 22.75C28.84 22.79 28.96 23 28.91 23.18Z" fill="#FFCEA6" fill-opacity="1.000000" fill-rule="nonzero"/>
	<path id="Vector" d="M33.44 24.6C33.36 24.88 33.08 25.06 32.77 24.98C32.47 24.9 32.31 24.62 32.39 24.31C32.47 24.01 32.75 23.85 33.06 23.93C33.36 24.01 33.52 24.31 33.44 24.6Z" fill="#FFCEA6" fill-opacity="1.000000" fill-rule="nonzero"/>
	<path id="Vector" d="M33.59 27.1C33.53 27.32 33.3 27.44 33.1 27.38C32.9 27.33 32.77 27.1 32.82 26.9C32.88 26.69 33.11 26.56 33.31 26.62C33.51 26.67 33.64 26.9 33.59 27.1Z" fill="#FFCEA6" fill-opacity="1.000000" fill-rule="nonzero"/>
	<path id="Vector" d="M36.6 22.83C36.5 23.18 36.14 23.39 35.78 23.3C35.42 23.2 35.21 22.84 35.31 22.48C35.4 22.12 35.77 21.91 36.13 22.01C36.49 22.1 36.7 22.47 36.6 22.83Z" fill="#FFCEA6" fill-opacity="1.000000" fill-rule="evenodd"/>
	<path id="Vector" d="M34.56 20.42C34.45 20.86 33.98 21.13 33.54 21.01C33.1 20.89 32.83 20.43 32.95 19.98C33.07 19.54 33.53 19.27 33.97 19.39C34.42 19.51 34.68 19.97 34.56 20.42Z" fill="#FFCEA6" fill-opacity="1.000000" fill-rule="nonzero"/>
	<path id="Vector" d="M39.43 19.86C39.29 20.39 38.75 20.7 38.23 20.56C37.7 20.42 37.39 19.88 37.53 19.35C37.68 18.83 38.21 18.52 38.74 18.66C39.26 18.8 39.57 19.34 39.43 19.86Z" fill="#FFCEA6" fill-opacity="1.000000" fill-rule="nonzero"/>
	<path id="Vector" d="M39.53 23.12C39.46 23.38 39.2 23.53 38.94 23.46C38.68 23.39 38.53 23.13 38.6 22.87C38.67 22.6 38.93 22.46 39.19 22.53C39.45 22.6 39.6 22.85 39.53 23.12Z" fill="#FFCEA6" fill-opacity="1.000000" fill-rule="nonzero"/>
	<path id="Vector" d="M43.32 25.85C43.15 26.47 42.51 26.84 41.89 26.67C41.26 26.5 40.89 25.86 41.06 25.24C41.23 24.61 41.87 24.24 42.49 24.41C43.12 24.58 43.49 25.22 43.32 25.85Z" fill="#FFCEA6" fill-opacity="1.000000" fill-rule="nonzero"/>
	<path id="Vector" d="M41.65 27.56C41.51 28.07 41 28.36 40.49 28.22C39.99 28.09 39.7 27.58 39.83 27.07C39.97 26.57 40.48 26.27 40.98 26.41C41.49 26.54 41.78 27.06 41.65 27.56Z" fill="#FFCEA6" fill-opacity="1.000000" fill-rule="nonzero"/>
	<path id="Vector" d="M45.11 27.89C45.06 28.07 44.86 28.19 44.67 28.14C44.49 28.09 44.37 27.88 44.42 27.7C44.47 27.52 44.68 27.4 44.86 27.45C45.04 27.5 45.16 27.7 45.11 27.89Z" fill="#FFCEA6" fill-opacity="1.000000" fill-rule="nonzero"/>
	<path id="Vector" d="M44.47 23.04C44.41 23.24 44.2 23.38 43.98 23.32C43.76 23.26 43.64 23.05 43.7 22.83C43.76 22.61 43.96 22.49 44.19 22.55C44.41 22.61 44.53 22.82 44.47 23.04Z" fill="#FFCEA6" fill-opacity="1.000000" fill-rule="nonzero"/>
	<path id="Vector" d="M46.85 21.41C46.66 22.11 45.95 22.53 45.22 22.33C44.49 22.14 44.1 21.42 44.29 20.72C44.48 20.01 45.2 19.6 45.9 19.79C46.61 19.98 47.04 20.7 46.85 21.41Z" fill="#FFCEA6" fill-opacity="1.000000" fill-rule="nonzero"/>
	<path id="Vector" d="M48.36 25.23C48.25 25.62 47.86 25.86 47.46 25.75C47.06 25.64 46.84 25.23 46.94 24.85C47.05 24.47 47.44 24.23 47.84 24.33C48.24 24.44 48.47 24.83 48.36 25.23Z" fill="#FFCEA6" fill-opacity="1.000000" fill-rule="nonzero"/>
	<path id="Vector" d="M49.99 30.5C49.9 30.86 49.53 31.07 49.17 30.97C48.82 30.87 48.6 30.51 48.7 30.15C48.8 29.79 49.16 29.58 49.52 29.68C49.88 29.77 50.09 30.14 49.99 30.5Z" fill="#FFCEA6" fill-opacity="1.000000" fill-rule="evenodd"/>
	<path id="Vector" d="M53.02 27.35C52.87 27.92 52.28 28.26 51.72 28.11C51.15 27.95 50.81 27.36 50.97 26.8C51.12 26.23 51.71 25.89 52.27 26.05C52.84 26.2 53.18 26.79 53.02 27.35Z" fill="#FFCEA6" fill-opacity="1.000000" fill-rule="nonzero"/>
	<path id="Vector" d="M53.1 30.92C53.03 31.19 52.75 31.35 52.49 31.28C52.23 31.21 52.06 30.93 52.13 30.66C52.2 30.4 52.49 30.24 52.75 30.31C53.01 30.38 53.17 30.66 53.1 30.92Z" fill="#FFCEA6" fill-opacity="1.000000" fill-rule="nonzero"/>
	<path id="Vector" d="M53.59 33.31C53.47 33.73 53.04 33.98 52.61 33.87C52.19 33.75 51.94 33.32 52.05 32.89C52.17 32.47 52.6 32.22 53.03 32.33C53.45 32.45 53.7 32.88 53.59 33.31Z" fill="#FFCEA6" fill-opacity="1.000000" fill-rule="nonzero"/>
	<path id="Vector" d="M57.77 30.4C57.6 31.03 56.96 31.4 56.33 31.23C55.71 31.06 55.34 30.42 55.51 29.8C55.67 29.17 56.31 28.8 56.94 28.97C57.57 29.14 57.93 29.78 57.77 30.4Z" fill="#FFCEA6" fill-opacity="1.000000" fill-rule="nonzero"/>
	<path id="Vector" d="M59.62 27.44C59.52 27.82 59.14 28.05 58.75 27.94C58.37 27.84 58.15 27.45 58.25 27.07C58.35 26.69 58.74 26.47 59.12 26.57C59.51 26.67 59.73 27.06 59.62 27.44Z" fill="#FFCEA6" fill-opacity="1.000000" fill-rule="nonzero"/>
	<path id="Vector" d="M56.94 27.11C56.85 27.45 56.49 27.66 56.15 27.57C55.81 27.47 55.6 27.12 55.69 26.77C55.78 26.43 56.14 26.22 56.49 26.31C56.83 26.41 57.04 26.77 56.94 27.11Z" fill="#FFCEA6" fill-opacity="1.000000" fill-rule="nonzero"/>
	<path id="Vector" d="M20.27 36.77C20.21 36.99 19.98 37.14 19.74 37.08C19.49 37.01 19.36 36.78 19.43 36.54C19.49 36.3 19.72 36.18 19.96 36.25C20.2 36.32 20.33 36.55 20.27 36.77Z" fill="#FFCEA6" fill-opacity="1.000000" fill-rule="nonzero"/>
</svg>
