<svg width="211.369995" height="431.354767" viewBox="0 0 211.37 431.355" fill="none" xmlns="http://www.w3.org/2000/svg" xmlns:xlink="http://www.w3.org/1999/xlink">
	<desc>
			Created with Pixso.
	</desc>
	<defs/>
	<path id="Vector" d="M5.16 340.31L206.2 340.31L206.2 431.35L5.16 431.35L5.16 340.31Z" fill="#E67E22" fill-opacity="1.000000" fill-rule="evenodd"/>
	<path id="Vector" d="M5.16 340.31L206.2 340.31L206.2 360.71L5.16 360.71L5.16 340.31Z" fill="#D35400" fill-opacity="1.000000" fill-rule="evenodd"/>
	<path id="Vector" d="M0 320.08L211.37 320.08L211.37 340.31L0 340.31L0 320.08Z" fill="#BDC3C7" fill-opacity="1.000000" fill-rule="evenodd"/>
	<path id="Vector" d="M6.4 11.95L204.96 11.95L204.96 300.51L6.4 300.51L6.4 11.95Z" fill="#34495E" fill-opacity="1.000000" fill-rule="evenodd"/>
	<path id="Vector" d="M6.4 130.22L204.96 130.22L204.96 155.25L6.4 155.25L6.4 130.22Z" fill="#1D2A36" fill-opacity="1.000000" fill-rule="evenodd"/>
	<path id="Vector" d="M6.4 222.28L204.96 222.28L204.96 247.31L6.4 247.31L6.4 222.28Z" fill="#1D2A36" fill-opacity="1.000000" fill-rule="evenodd"/>
	<path id="Vector" d="M204.96 300.53L6.4 300.53L0 320.53L211.37 320.53L204.96 300.53Z" fill="#E3E7E8" fill-opacity="1.000000" fill-rule="nonzero"/>
	<path id="Vector" d="M211.37 11.95L0 11.95C0 5.36 5.36 0 11.95 0L199.41 0C206.01 0 211.37 5.36 211.37 11.95Z" fill="#E67E22" fill-opacity="1.000000" fill-rule="nonzero"/>
	<path id="Vector" d="M204.96 30.94L6.4 30.94L6.4 53.19C8.5 57.7 13.06 60.85 18.37 60.85C25.67 60.85 31.58 54.94 31.58 47.64C31.58 54.94 37.5 60.85 44.79 60.85C52.09 60.85 58 54.94 58 47.64C58 54.94 63.91 60.85 71.21 60.85C78.51 60.85 84.42 54.94 84.42 47.64C84.42 54.94 90.33 60.85 97.63 60.85C104.93 60.85 110.84 54.94 110.84 47.64C110.84 54.94 116.75 60.85 124.05 60.85C131.34 60.85 137.26 54.94 137.26 47.64C137.26 54.94 143.17 60.85 150.47 60.85C157.76 60.85 163.67 54.94 163.67 47.64C163.67 54.94 169.59 60.85 176.89 60.85C184.18 60.85 190.09 54.94 190.09 47.64C190.09 54.94 196.01 60.85 203.3 60.85C203.86 60.85 204.41 60.81 204.94 60.75L204.94 30.94L204.96 30.94Z" fill="#1D2A36" fill-opacity="1.000000" fill-rule="nonzero"/>
	<path id="Vector" d="M13.2 41.86C5.91 41.86 0 35.94 0 28.65L0 11.95L26.41 11.95L26.41 28.65C26.41 35.94 20.5 41.86 13.2 41.86Z" fill="#F1C40F" fill-opacity="1.000000" fill-rule="nonzero"/>
	<path id="Vector" d="M39.62 41.86C32.33 41.86 26.41 35.94 26.41 28.65L26.41 11.95L52.83 11.95L52.83 28.65C52.83 35.94 46.92 41.86 39.62 41.86Z" fill="#C0392B" fill-opacity="1.000000" fill-rule="nonzero"/>
	<path id="Vector" d="M66.04 41.86C58.75 41.86 52.83 35.94 52.83 28.65L52.83 11.95L79.25 11.95L79.25 28.65C79.25 35.94 73.34 41.86 66.04 41.86Z" fill="#F1C40F" fill-opacity="1.000000" fill-rule="nonzero"/>
	<path id="Vector" d="M92.48 41.86C85.19 41.86 79.27 35.94 79.27 28.65L79.27 11.95L105.69 11.95L105.69 28.65C105.69 35.94 99.78 41.86 92.48 41.86Z" fill="#C0392B" fill-opacity="1.000000" fill-rule="nonzero"/>
	<path id="Vector" d="M118.9 41.86C111.6 41.86 105.69 35.94 105.69 28.65L105.69 11.95L132.11 11.95L132.11 28.65C132.11 35.94 126.2 41.86 118.9 41.86Z" fill="#F1C40F" fill-opacity="1.000000" fill-rule="nonzero"/>
	<path id="Vector" d="M145.32 41.86C138.02 41.86 132.11 35.94 132.11 28.65L132.11 11.95L158.53 11.95L158.53 28.65C158.53 35.94 152.62 41.86 145.32 41.86Z" fill="#C0392B" fill-opacity="1.000000" fill-rule="nonzero"/>
	<path id="Vector" d="M171.74 41.86C164.44 41.86 158.53 35.94 158.53 28.65L158.53 11.95L184.95 11.95L184.95 28.65C184.95 35.94 179.03 41.86 171.74 41.86Z" fill="#F1C40F" fill-opacity="1.000000" fill-rule="nonzero"/>
	<path id="Vector" d="M198.16 41.86C190.86 41.86 184.95 35.94 184.95 28.65L184.95 11.95L211.37 11.95L211.37 28.65C211.37 35.94 205.45 41.86 198.16 41.86Z" fill="#C0392B" fill-opacity="1.000000" fill-rule="nonzero"/>
	<path id="Vector" d="M0 218.36L211.37 218.36L211.37 226.21L0 226.21L0 218.36Z" fill="#F1C40F" fill-opacity="1.000000" fill-rule="evenodd"/>
	<path id="Vector" d="M211.37 218.36L204.96 208.24L6.4 208.24L0 218.36L211.37 218.36Z" fill="#F39C12" fill-opacity="1.000000" fill-rule="nonzero"/>
	<path id="Vector" d="M0 126L211.37 126L211.37 133.85L0 133.85L0 126Z" fill="#F1C40F" fill-opacity="1.000000" fill-rule="evenodd"/>
	<path id="Vector" d="M211.37 126L204.96 115.86L6.4 115.86L0 126L211.37 126Z" fill="#F39C12" fill-opacity="1.000000" fill-rule="nonzero"/>
</svg>
